<?xml version="1.0" encoding="UTF-8"?>
<svg id="Capa_1" data-name="Capa 1" xmlns="http://www.w3.org/2000/svg" xmlns:xlink="http://www.w3.org/1999/xlink" viewBox="0 0 375 375">
  <defs>
    <style>
      .cls-1 {
        fill: #fefdfd;
      }

      .cls-2 {
        fill: #fbd3d1;
      }

      .cls-3 {
        fill: #faaea9;
      }

      .cls-4 {
        fill: #f5aba7;
      }

      .cls-5 {
        fill: #464c7a;
      }

      .cls-6 {
        fill: #404777;
      }

      .cls-7 {
        fill: #101f33;
      }

      .cls-8 {
        clip-path: url(#clippath);
      }

      .cls-9 {
        fill: none;
      }

      .cls-10 {
        fill: #f8a554;
      }

      .cls-11 {
        fill: #18263a;
      }

      .cls-12 {
        fill: #ae99ac;
      }

      .cls-13 {
        fill: #feab58;
      }

      .cls-14 {
        fill: #fefefe;
      }
    </style>
    <clipPath id="clippath">
      <circle class="cls-9" cx="187.5" cy="187.5" r="187.5"/>
    </clipPath>
  </defs>
  <g class="cls-8">
    <g>
      <path class="cls-2" d="M196.69,375.43h-17.97c-1.88-1.28-3.98-.53-5.99-.66-8.46-.37-16.77-1.94-25.03-3.64-12.97-2.67-25.34-7.15-37.43-12.57-18.71-8.38-35.41-19.71-50.4-33.58-13.98-12.94-25.58-27.83-34.95-44.42-12.32-21.81-20.1-45.11-23.01-70.05-.43-3.64,.25-7.46-1.34-10.96v-22.45c1.01-1.02,.72-2.33,.72-3.55,.03-5.49,.94-10.91,1.85-16.27,3.78-22.18,11.23-43.07,22.53-62.57,11.16-19.26,25.23-36.15,42.38-50.28,13.3-10.96,27.89-19.95,43.7-27.06C133.05,7.8,155.35,2.78,178.49,1.32c16.22-1.03,32.38,.47,48.22,3.92,33.32,7.26,62.7,22.49,87.87,45.51,14.24,13.02,26.01,28.12,35.65,44.87,14.87,25.84,22.65,53.78,24.51,83.39,.84,13.32-.1,26.65-2.35,39.79-4.46,26.09-13.75,50.35-28.45,72.48-10.13,15.25-22.03,28.96-36.13,40.59-13.79,11.37-28.85,20.81-45.34,27.95-19.14,8.28-39.02,13.36-59.8,14.96-2.01,.13-4.11-.62-5.99,.66Zm.76-336.01c-.48-2.26-1.18-3.3-3.8-1.78-1.96,1.14-4.4,.7-6.18-1.11-1.64-1.66-2.01-3.67-1.29-5.85,1.06-3.18,4.49-4.46,7.99-2.98,.94,.4,1.9,1.76,2.76,.12,.97-1.85-.99-2-1.87-2.45-3.46-1.77-7.66-.84-10.17,2.08-2.27,2.63-2.5,6.84-.53,9.71,2.18,3.17,6.11,4.3,9.91,3.07,1.04-.34,1.84-1.82,3.23-.85,.81,2.53,2.01,1.9,3.32,.41,2.58-2.92,8.44-2.37,9.86,1.08,.72,1.75,1.62,1.84,3.24,1.36-1.39-4.64-2.7-9.15-4.11-13.63-.34-1.07-.21-2.52-1.97-2.78-1.84-.28-2.29,1.02-3.03,2.15-2.51,3.78-4.17,8.11-7.35,11.45Zm-81.96,8.93c.43-.09,.86-.18,1.29-.27,3.21,1.64,6.44,3.23,9.6,4.95,1.09,.59,1.96,.33,2.73-.31,.91-.75,.18-1.58-.18-2.33-1.67-3.47-3.33-6.94-5.04-10.39-.46-.93-.78-2.32-2.37-1.38-1.35,.8-.41,1.7-.08,2.55,.98,2.51,2.76,4.72,3.31,7.86-3.89-1.99-7.33-3.73-10.74-5.51-1-.52-1.87-.49-2.78,.15-.88,.61-.46,1.26-.13,1.93,1.84,3.8,3.68,7.6,5.52,11.4,.43,.88,.99,1.42,2.05,.88,1.11-.57,.81-1.29,.38-2.15-1.22-2.44-2.38-4.92-3.57-7.38Zm211.42,84.64c1.88-4.28,5.8-6.91,8.52-10.5,.66-.87,1.59-1.54,.9-2.92-.63-1.26-1.6-1.37-2.78-1.33-3.61,.1-7.22,.19-10.83,.24-1.06,.02-2.17,.3-2.8-1.14-.84-1.91-1.94-3.71-3.04-5.78,3.49-2.04,6.81-3.98,10.13-5.91,.79-.46,1.48-.86,.84-2.01-.61-1.09-1.33-.93-2.16-.45-1.83,1.05-3.65,2.14-5.47,3.2-7.24,4.21-7.3,4.25-2.78,11.31,.84,1.3,1.06,3.25,3.45,3.44,3.74,.3,6.22,5.89,4.08,8.98-1.34,1.94-.59,2.86,1.24,3.55,.7,2.22-.19,4.64,.91,6.82,1.19,2.37,2.69,4.3,5.72,3.71,2.78-.54,3.13-2.71,3.36-5.08,.19-1.88-1.07-5.09,1.78-5.17,2.59-.08,2.26,3.01,2.26,5.07,0,.88,.15,1.44,1.13,1.5,.69,.05,1.26-.09,1.39-.86,.46-2.71-.07-5.2-1.8-7.36-1.32-1.65-3.07-2.14-5-1.35-2.41,.99-2.39,3.18-2.48,5.35-.07,1.82,.91,4.82-1.85,4.75-2.94-.07-2.4-3.16-2.43-5.34,0-.12,0-.26,.04-.37,.79-2.32-.63-2.47-2.32-2.35ZM157.46,30.09c.28,.23,.56,.46,.85,.69-2.21,4.16-4.42,8.33-6.82,12.86-3.24-3.69-6.23-7.15-9.27-10.56-1.63-1.83-3.51-2.13-3.99,.66-.9,5.19-1.3,10.46-1.92,15.85,1.48-.17,2.33-.24,2.77-1.47,1.65-4.62,5.66-5.87,9.92-3.15,.7,.45,1.36,.48,2.12,.31,4.12-.91,8.24-1.82,12.37-2.71,.98-.21,2.13-.26,1.74-1.75-.33-1.29-1.38-.74-2.16-.67-2.24,.21-4.39,1.38-7.14,.71,2.08-3.87,4.01-7.46,5.95-11.05,.49-.91,.98-1.86,.27-2.77-.66-.85-1.62-.29-2.42-.14-2.69,.51-5.37,1.04-8.03,1.68-.84,.2-2.32,0-2.06,1.52,.29,1.74,1.7,1.01,2.7,.88,1.72-.22,3.42-.59,5.14-.89Zm-30.38,160.45c.25,.26,.5,.52,.75,.78,.79,1.95,2.43,3.12,4,4.36,6.77,12.36,10.66,25.68,13.14,39.46,.39,2.18,1.32,3.63,3.34,4.53,4.09,1.83,8.19,3.59,12.53,4.8,14.89,4.15,29.81,3.49,44.74,.32,11.02-2.34,21.7-5.55,30.92-12.44,1.69-1.27,2.29-2.47,1.84-4.69-1.31-6.4-.86-12.87-.14-19.33,.75-6.71,3.51-12.89,4.96-19.41,6.72-2.92,12.35-7.26,16.76-13.12,7.06-9.37,8.85-20.17,7.73-31.42-.81-8.1-3.15-15.88-10.27-21.11,.14-1.67-.98-2.33-2.24-3.05-3.86-2.18-8.01-3.41-12.39-3.67-1.83-.11-2.98-.7-3.82-2.35-2.64-5.21-7.09-8.45-12.12-11.16-4.75-2.56-10-2.73-15.08-3.72-.02-1.12,.02-2.24-.07-3.35-.41-4.93-4.3-9.7-8.41-10.13-8.07-.84-15.18,1.81-21.53,6.51-1.66,1.23-4.19,1.97-4.45,4.66-3.12-.85-6.28-1.75-9.52-1.4-15.08,1.65-26.08,14.13-28.47,27.67-.57,3.21-1.48,4.69-4.52,5-5.69,.58-10.44,3.36-14.6,6.97-2.32,2.01-5.56,3.61-5.76,7.4-.45,.42-.99,.77-1.34,1.26-8.75,12.17-6.87,30.95,4.34,40.91,2.79,2.48,5.51,5.54,9.76,5.75l-.06-.02Zm41.44,139.5c-.27-.23-.54-.45-.8-.68,1.28-1.99,2.65-3.92,3.82-5.98,1.44-2.53,2.19-5.28,2-8.24-.13-2-.8-3.72-2.77-4.49-2.04-.8-3.63,.27-4.98,1.67-1.78,1.83-2.72,4.16-3.53,6.52-1.99,5.83-2.86,11.85-2.98,17.99-.02,1.2,.31,2.57-1.29,3.14-4.28,1.53-8.62,2.64-13.14,1.15-4.5-1.49-6.46-5.66-5.63-11.65,.91-6.48,4.62-10.86,9.3-11.07,3.45-.15,4.32,1.72,3.99,4.74-.16,1.47-.53,3.21,1.62,3.54,2.05,.32,2.86-1.17,3.36-2.81,1.44-4.7-1.54-9.3-6.43-9.81-5.68-.59-10.27,1.46-13.68,6.02-3.21,4.3-4.28,9.23-3.79,14.48,.54,5.82,3.77,9.6,9.45,11.16,4.45,1.22,8.89,.7,13.29-.41,.92-.23,1.71-.91,2.81-.38,3.89,1.87,4.48,1.58,5.87-2.48,.98-2.86,1.56-5.97,4.42-7.93,.63,1.75-.24,3.15-.33,4.61-.15,2.3-1.13,4.98,1.31,6.55,2.35,1.51,4.79,.68,6.95-.88,.79-.57,1.41-1.29,2.58-.41,4.45,3.34,8.89,2.2,13.29-.31,.97,1.06,1.54,2.72,3.47,2.16,1.64-.48,1.73-1.99,2.14-3.25,.96-2.94,1.67-6.02,5.08-8.91-.69,5.18,1.04,7.28,5.32,6.83,1.25-.13,1.31,.88,1.47,1.73,.28,1.56,.17,3.49,2.4,3.64,2.46,.17,2.48-1.99,3.03-3.57,.99-2.82,1.53-5.91,4.4-7.95,1.02,5.9,1.25,6.09,7.11,6.26,.57,3.65,2.13,6.3,7.4,4.9-3.09,3.57-6.39,5.76-8.12,9.24-1.74,3.5-1.24,6.67,1.25,7.95,2.55,1.31,5.53,.12,7.53-3.09,1.86-3,2.97-6.34,3.57-9.77,.47-2.69,1.65-4.54,4.06-5.78,1.32-.68,2.49-1.65,3.71-2.51,1.3-.9,1.94-2.23,.95-3.49-.98-1.25-1.96,.16-2.88,.6-1.2,.57-1.99,1.93-3.94,1.82,.47-3.22,.92-6.38,1.4-9.54,.17-1.11,.59-2.39-.94-2.78-1.35-.34-2.5,.27-3.01,1.6-.8,2.09-1.39,4.26-2.26,6.32-.68,1.6-1.13,3.52-3.47,4.23-.77-3.33,.47-6.12,.96-8.99,.2-1.15,.97-2.64-.79-3.15-1.46-.43-2.75,.27-3.34,1.71-.52,1.26-.75,2.63-1.18,3.93-.38,1.13-.57,2.57-2.4,2.06-.75-1.21-.24-2.45-.14-3.66,.11-1.35,.57-2.79-.9-3.71-1.52-.95-2.89-.19-4.2,.54-1.97,1.09-3.02,3.15-4.95,5.27,.1-1.34,.2-1.94,.17-2.53-.07-1.27,1.71-3.17-.83-3.62-2.06-.37-3.14,1.12-3.6,3.02-.24,.97-.51,1.93-.7,2.91-.23,1.17-.48,2.24-2.09,1.76-.72-1.23-.22-2.46-.11-3.68,.12-1.36,.55-2.79-.94-3.69-1.53-.92-2.89-.14-4.2,.58-1.95,1.08-2.96,3.16-4.78,5.03,0-1.02,.07-1.51-.01-1.98-.24-1.35,1.97-3.44-.83-3.94-2.27-.4-3.26,1.39-3.63,3.41-.34,1.83-.66,3.67-.92,5.52-.4,2.85-2.71,3.73-4.88,4.6-1.8,.72-3.71,.87-5.45-.95,2.15-1.26,4.35-1.58,5.86-3.17,2.13-2.23,2.83-4.83,1.15-7.47-1.59-2.49-4.15-2.47-6.69-1.52-3.21,1.2-4.96,3.65-5.61,6.92-.24,1.21-.16,2.5-.46,3.69-.36,1.44-1.43,2.58-2.94,2.27-1.52-.31-.95-1.83-.79-2.85,.37-2.46,1.04-4.88,1.28-7.35,.25-2.65-1.18-3.69-3.73-2.89-.94,.29-1.79,.84-2.69,1.28Zm66.33-49.68c-.44,.05-.89,.1-1.33,.15,0-1.74,2.49-4.22-.47-5.01-2.9-.78-3.43,2.21-3.94,4.37-.4,1.69-.42,3.47-.83,5.16-.92,3.85-6.72,5.52-9.58,2.76,1.46-.69,2.99-1.24,4.34-2.09,2.9-1.82,4-5.55,2.53-8.1-1.47-2.55-5.08-3.04-8.31-1.1-2.27,1.36-3.6,3.4-4.16,5.95-.24,1.09-.32,2.21-.41,3.33-.14,1.79-1.32,2.57-2.84,3.04-1.19,.37-2.27,.17-3.01-.85-1.03-1.42-.11-2.58,.68-3.71,2.23-3.17,4.09-6.56,5.56-10.13,1.53-3.71,2.68-7.52,2.33-11.62-.18-2.19-.67-4.37-3.08-5.06-2.39-.68-4.13,.79-5.33,2.61-1.15,1.75-2.12,3.68-2.84,5.65-2.07,5.67-3.2,11.56-2.87,17.59,.16,2.86-1.4,4.07-3.45,5.1-2.12,1.07-4.31,1.78-6.73-.33,1.78-.9,3.38-1.54,4.79-2.46,2.94-1.92,3.89-5.58,2.26-8.13-1.54-2.41-4.96-2.92-8.03-1.08-3.02,1.8-4.52,4.6-4.62,8.06-.05,1.6-.24,2.98-1.77,3.8-1.64,.88-3.52,1.34-4.86-.11-2.13-2.31-1.9-5.39-1.43-8.18,.3-1.81,2.28-.82,3.51-.98,2-.27,4.86,.54,5.1-2.38,.22-2.65-2.5-.95-3.73-1.62-.17-.1-.26-.35-.47-.65,2.08-2.48,3.79-5.2,3.92-8.61,.08-2.16,.09-4.52-2.22-5.5-2.45-1.04-4.28,.48-5.77,2.33-2.25,2.79-3.27,6.15-4.08,9.54-.39,1.63-.4,3.26-2.77,3.08-1.04-.08-1.55,.75-1.65,1.69-.13,1.15,.38,2.03,1.62,2.03,1.93,0,1.63,1.28,1.77,2.54,.4,3.73-1.83,5.54-4.89,7.23,.15-4.95-6.98-7.64-2.68-13.19-3.01-.88-4.69-.25-5.68,2.16-1.27,3.12-2.62,6.22-5,8.69-1.04,1.07-1.7,2.93-3.9,2.28-.76-3.06,.56-5.9,.88-8.82,.11-1.01,.51-2.44-.49-2.69-2.8-.7-5.46-3-8.65-.69-2.64,1.91-4.6,4.16-5.47,7.3-.88,3.16-1.1,6.34,1.76,8.57,2.92,2.28,5.55,.62,7.78-1.45,3.45,3.13,5.15,3.16,8.54,.29,.85-.72,1.62-1.54,2.43-2.32,.28,.32,.55,.64,.83,.96-.23,3.51,1.46,5.17,4.89,4.16,3.6-1.07,7.64-1.34,10.18-4.71,3.4,3.72,5.23,5.06,8.44,3.81,3.74-1.46,6.79-1.42,10.52,0,3.67,1.39,7.15-.87,10.19-2.95,3.7,3.88,5.8,4.18,10.35,1.58,.72-.41,1.28-1.24,2.28-.48,4.42,3.39,8.86,2.36,13.33-.1,.96,.84,1.38,2.43,3.12,2.12,1.96-.34,1.99-2.03,2.45-3.38,1.03-3,1.68-6.19,4.79-8.62-.23,4.33,.84,7.17,5.55,6.56,1.46-.19,1.44,1.01,1.79,1.9,1.52,3.74,3.63,4.5,7.35,2.78,.8-.37,1.5-1.69,2.57-.74,3.24,2.86,6.1,1.49,8.83-.92,1.56,2.03,3.35,3.2,5.63,2.11,2.51-1.2,4.63-2.97,5.56-5.75,.23-.69,.26-1.59-.47-2.05-.98-.63-1.54,.23-2.2,.8-1.31,1.14-2.03,3.29-4.5,2.75-.78-3.09,.55-5.93,.86-8.86,.14-1.27,.49-2.4-1.14-3.08-5.74-2.39-10.55-.38-12.97,5.61-.51,1.26-.72,2.64-1.09,3.95-.41,1.45-1.35,2.68-2.84,2.48-1.75-.23-1.24-1.95-1.1-3.06,.3-2.47,.79-4.92,1.25-7.36,.22-1.18,.37-2.37-1.02-2.81-1.48-.47-2.71,.02-3.33,1.56-.23,.57-.28,1.24-.57,1.77-.81,1.47,.18,4.62-2.46,4.17-1.9-.32-.38-2.79-.42-4.27-.07-3.05-1.43-4.06-4.28-2.9-2.19,.89-3.52,2.7-4.82,4.55Zm-128.78,3.78c-.18,3.36,.22,6.81,2.36,9.79,1.72,2.4,4.09,3.67,7.09,3.19,2.99-.48,3.85-2.82,4.32-5.4,.38-2.08,.95-4.14,1.14-6.24,.18-1.92,.84-2.78,2.9-3.02,3-.35,5.75-1.61,8.02-3.69,3.33-3.04,4.69-8.09,3.06-11.94-1.77-4.17-5.28-5.77-9.57-5.92-7.16-.26-12.48,2.88-16.01,9.03-2.48,4.32-3.37,9.06-3.31,14.2Zm225.4-123.41c6.13-.14,10.73,1.98,13.95,7.33-.02-6.42,3.93-10,8.2-13.62-6.11,.14-10.4-2.65-14.28-7.17,.63,6.47-3.21,10.05-7.87,13.47ZM19.7,189.43c3.4-5.45,8.53-6.3,14.38-6.37-5.13-3.29-7.41-7.91-7.04-14.12-3.58,5.24-8.61,6.09-15.08,6.02,5.26,4.04,7.76,8.51,7.74,14.48Zm62.2-106.62c.06-4.35-3.68-8.16-7.99-8.16-4.61,0-8.83,4.26-8.79,8.87,.04,4.18,3.64,7.85,7.82,7.97,4.59,.13,8.9-4.04,8.96-8.69ZM218.88,27.31c-1.16,4.89-2.26,9.46-3.34,14.03-.21,.91-.25,1.7,.96,2,.94,.23,1.39-.15,1.7-.94,.48-1.22-.15-3.19,2.33-3.05,2.5,.14,3.39,1.65,3.85,3.77,.38,1.72,1.18,2.95,3.57,2.43-1.41-2.91-2.17-5.25,1.21-7.82,2.86-2.18,1.39-6.74-2.16-8.16-2.5-1-5.21-1.46-8.12-2.24Zm-114.37,21.65c-4.81,0-8.93,4.09-8.82,8.72,.1,4.32,3.96,7.94,8.33,7.83,4.55-.12,8.62-4.18,8.66-8.61,.03-4.31-3.71-7.94-8.17-7.93Zm193.26,17.89c-2.52,2.69-5.1,5.19-7.36,7.96-1.09,1.34-4.41,2.26-2.63,4.41,1.78,2.16,2.56-1.89,4.2-1.7,6.42,1.22-.52,7.63,4.37,9.92-.28-4,1.74-5.41,5.32-6.34,3.61-.94,4.4-5.2,1.99-8.24-1.61-2.03-3.62-3.73-5.89-6.01ZM42.82,137.41c1.76,.53,3.29,1,4.82,1.47,1.05,.32,1.65-.11,1.96-1.11,.33-1.06-.5-1.33-1.16-1.54-4.14-1.35-8.3-2.65-12.46-3.93-.77-.24-1.46-.1-1.74,.85-.26,.9,.09,1.47,.89,1.76,1.05,.39,2.13,.69,3.19,1.04,.92,.3,2.18,.45,1.67,1.88-.75,2.09-.69,4.71-2.37,6.16-1.23,1.06-2.97-.6-4.54-.81-.24-.03-.46-.18-.7-.26-.98-.33-1.37,.32-1.63,1.05-.31,.89,.12,1.4,.97,1.66,4.16,1.29,8.31,2.59,12.46,3.9,.96,.3,1.7,.27,1.99-.9,.3-1.21-.55-1.42-1.39-1.77-1.43-.61-3.14-.58-4.42-1.84,.8-2.51,1.59-4.97,2.44-7.6Zm3.39-9.32c.8-1.89,1.56-3.72,2.34-5.54,.32-.75,.44-1.36-.52-1.81-.96-.44-1.38,.04-1.72,.77-.56,1.24-1.12,2.49-1.63,3.75-.52,1.28-1.06,2.14-2.73,1.37-1.56-.72-2.1-1.47-1.19-3.11,.78-1.4,1.25-2.97,1.94-4.43,.6-1.26-.25-2.47-1.04-1.91-2.62,1.86-2.82,5.3-4.3,7.94-.37,.66-1.08,1.51-.19,2.35,.17,.16,.44,.22,.67,.32,4.39,1.92,8.78,3.83,13.32,5.81,.97-2.15,1.94-3.9,2.53-5.77,.55-1.73,2.98-4.29,1.18-5.07-2.71-1.18-2.67,2.5-3.3,4.09-1.21,3.05-2.6,3.53-5.37,1.21Zm12.49-28.06c-1.26-.86-2.34-1.68-3.5-2.35-.92-.53-1.82-2.18-3.03-.36-1.03,1.55,.56,1.92,1.31,2.48,2.88,2.16,5.82,4.27,8.81,6.28,.84,.57,1.78,2.3,2.99,.44,1.15-1.77-.71-2.22-1.57-2.69-2.81-1.53-2.59-2.95-.9-5.46,2.05-3.04,3.76-3.87,6.49-1.06,.66,.67,1.47,1.45,2.46,.19,.99-1.26,.03-1.75-.77-2.32-3.23-2.33-6.45-4.66-9.71-6.95-.74-.52-1.5-1.5-2.51-.22-.97,1.22-.06,1.71,.72,2.35,1.23,1.01,2.81,1.61,3.76,3.27-1.47,2.07-2.97,4.17-4.57,6.41Zm204.09-54.48c2.05,1.09,4.03,2.12,5.99,3.19,.74,.4,1.42,.54,1.88-.33,.44-.82,.08-1.39-.69-1.81-2.4-1.31-4.81-2.61-7.18-3.97-1.37-.78-2-.1-2.6,1.04-2.15,4.02-4.34,8.02-6.65,12.27,3.09,1.69,5.92,3.22,8.72,4.78,.84,.47,1.63,.74,2.2-.32,.64-1.19-.37-1.5-1.1-1.91-2.02-1.15-4.06-2.27-6.2-3.47,.8-1.39,1.41-2.44,2.12-3.69,1.87,1.01,3.61,1.95,5.35,2.87,.69,.36,1.39,.57,1.95-.25,.75-1.11-.08-1.53-.87-1.97-.76-.42-1.48-.95-2.29-1.26-2.95-1.13-3.16-2.75-.65-5.17Zm47.38,37.87c1.46,1.73,2.97,3.51,4.48,5.3,.54,.64,1.1,.96,1.88,.32,.79-.65,.59-1.27,.03-1.89-2.21-2.45-3.96-5.34-6.67-7.53-4.12,3.42-8.08,6.71-12.11,10.05,2.37,2.88,4.34,5.29,6.34,7.67,.54,.64,1.05,1.53,2.09,.58,.98-.89,.29-1.54-.25-2.21-1.1-1.35-2.19-2.72-3.34-4.02-.98-1.1-.75-1.89,.34-2.77,1.08-.86,2-1.55,3.06-.02,.5,.71,1.02,1.46,1.69,1.99,.91,.71,1.3,3.08,2.95,1.66,1.61-1.39-.67-2.21-1.14-3.31-.14-.33-.43-.62-.71-.86-2.56-2.26-1.53-3.7,1.36-4.95ZM166.09,28.8c.22,2.09,.42,4.07,.65,6.04,.51,4.46,3.28,6.88,7.43,6.52,4.49-.4,6.9-3.21,6.59-7.77-.15-2.23-.39-4.45-.64-6.67-.12-1.06,.06-2.48-1.68-2.27-1.74,.21-1.19,1.63-1.13,2.64,.13,2.1,.44,4.2,.62,6.3,.23,2.66-.49,4.75-3.52,5.12-3.09,.38-4.65-1.14-4.88-4.18-.15-1.98-.33-3.96-.61-5.93-.15-1.09,.44-2.84-1.53-2.79-2.43,.07-.96,2.02-1.3,2.99Zm102.11,30.19c-1.52,.38-2.28,1.03-1.49,2.65,.96,1.96,2.31,3.56,4.24,4.57,2.25,1.18,4.57,1.59,6.45-.61,1.78-2.07,.92-4.06-.34-6.14-.97-1.61-4.12-3.3-1.79-5.2,2.05-1.67,3.59,1.09,4.83,2.69,.65,.84,1.15,1.19,2.09,.48,.79-.6,.66-1.25,.22-1.93-1.4-2.16-3.21-3.79-5.82-4.32-1.71-.35-3.23-.02-4.34,1.44-1.2,1.58-1.13,3.25-.08,4.85,.82,1.25,1.78,2.4,2.61,3.63,.58,.87,.9,1.87,.03,2.71-.85,.82-1.87,.47-2.78,.03-2.04-1-2.68-3.16-3.85-4.85Zm-177.43,15.73c2.99,.08,5.36-1.18,6.96-3.61,.79-1.21,2.62-3.02,.92-4.15-2.1-1.39-1.88,1.5-2.69,2.46-1.77,2.11-3.82,3.14-6.56,2.29-2.42-.76-3.71-2.52-3.79-4.98-.09-2.78,1.24-4.75,3.98-5.61,.47-.15,.98-.19,1.47-.27,1.05-.16,1.58-.71,1.29-1.79-.26-.97-1.07-.85-1.82-.82-4.04,.19-7.74,4.39-7.66,8.7,.08,4.3,3.54,7.72,7.9,7.79Zm-45.46,35.68c-.03,5.22,3.71,8.88,8.3,8.69,4.61-.2,8.54-4.65,7.95-9.04-.11-.82-.06-1.84-1.38-1.75-1.02,.07-1.1,.78-1.14,1.57-.03,.74,0,1.51-.19,2.22-.71,2.75-3.55,4.62-6.22,4.18-2.95-.49-5.18-3.29-4.79-6.14,.29-2.11,1.47-3.67,3.35-4.64,.77-.4,1.22-.87,.82-1.73-.51-1.09-1.35-.91-2.17-.42-2.9,1.71-4.45,4.22-4.53,7.06ZM239.84,32.94c-.3,5.78,2.67,10.86-.07,15.98-.48,.9,.24,1.36,1,1.59,.88,.26,1.41-.19,1.64-1.03,.69-2.47,2.09-4.39,4.17-5.94,2.14-1.6,4.09-3.45,6.5-5.51-4.76-1.72-5.94,3.43-9.18,3.78-2.18-2.43,.27-7.02-4.07-8.87Zm47.92,29.53c-2.08,2.58-4.25,5.13-6.25,7.81-.66,.88-2.71,1.77-.82,3.23,1.61,1.24,2.08-.62,2.8-1.42,1.41-1.56,2.72-3.22,4.01-4.89,1.54-1.99,2.94-4.34,5.57-1.16,.51,.61,1.22,.77,1.89,0,.9-1.02,.1-1.52-.57-2.07-1.53-1.26-2.96-2.7-4.65-3.7-1.5-.89-2.76-4.18-4.58-2.18-1.68,1.83,2.16,2.27,2.61,4.38ZM45.68,170.63c-2.6-2.24-3.33-5.16-3.82-8.84-2.16,3.22-5.24,3.41-8.27,4.48,2.68,2.24,3.37,5.09,4.03,8.49,2.06-3.14,4.73-4.11,8.06-4.13ZM310.44,101.67c3.24-2.25,6.38-4.44,9.53-6.61,.89-.61,1.61-1.21,.76-2.38-.75-1.04-1.46-.51-2.19-.01-3.37,2.32-6.74,4.65-10.11,6.97-.86,.59-1.64,1.2-.81,2.39,1.28,1.83,2.54,3.67,3.81,5.51,.47,.67,1.02,1.06,1.86,.52,1.11-.72,.53-1.45,.04-2.17-.9-1.33-1.81-2.65-2.88-4.22Zm19.07,75.98c3.26,.26,5.42,2.25,7.87,4.53,.19-3.54,2.14-5.61,4.54-7.81-3.25-.78-5.9-1.94-8.03-4.7-.54,3.35-1.8,5.81-4.38,7.98Zm-78.85,95.22c1.96-.16,3.45-.98,3.58-3.08,.13-2.08-1.3-2.85-3.13-2.85-1.95,0-3.43,.85-3.54,3.01-.11,2.09,1.27,2.78,3.09,2.91Zm98.16-94.66c2.39-.51,3.3,1.87,5.47,2.28-.02-2.05,1.38-3.2,2.43-4.78-2.01-.64-3.55-1.56-5.24-3.05-.32,2.27-1.36,3.73-2.66,5.55ZM24.79,161.55c1.57-2.05,3.61-1.71,5.97-2.53-2.11-1.3-2.49-3.09-3.12-5.19-1.53,1.5-3.4,1.51-5.16,2.15,.8,1.76,1.99,3.06,2.32,5.57ZM175.68,21.06c-3.08-2.08-3.22,.55-4.31,2.25,2.43,.55,3.2-1.02,4.31-2.25Z"/>
      <path class="cls-14" d="M202.68,374.77c20.78-1.6,40.66-6.68,59.8-14.96,16.49-7.14,31.55-16.57,45.34-27.95,14.1-11.63,26-25.34,36.13-40.59,14.7-22.13,24-46.39,28.45-72.48,2.24-13.14,3.18-26.47,2.35-39.79-1.86-29.61-9.64-57.55-24.51-83.39-9.64-16.75-21.42-31.85-35.65-44.87-25.17-23.02-54.55-38.25-87.87-45.51-15.84-3.45-32.01-4.94-48.22-3.92-23.14,1.46-45.44,6.48-66.73,16.05-15.82,7.11-30.41,16.1-43.7,27.06-17.15,14.13-31.22,31.02-42.38,50.28-11.29,19.5-18.74,40.39-22.53,62.57-.92,5.37-1.82,10.78-1.85,16.27,0,1.21,.29,2.53-.72,3.55V.5H375.5V375.43H202.68c0-.22,0-.44,0-.66Z"/>
      <path class="cls-14" d="M.57,199.55c1.59,3.5,.92,7.32,1.34,10.96,2.92,24.94,10.69,48.24,23.01,70.05,9.37,16.59,20.97,31.48,34.95,44.42,14.98,13.87,31.69,25.19,50.4,33.58,12.09,5.42,24.47,9.9,37.43,12.57,8.26,1.7,16.56,3.27,25.03,3.64,0,.22,0,.44,0,.66-56.39,0-112.78-.02-169.17,.07-2.56,0-3.07-.5-3.07-3.07,.09-57.63,.07-115.26,.07-172.88Z"/>
      <path class="cls-1" d="M202.68,374.77c0,.22,0,.44,0,.66h-5.99c1.88-1.28,3.98-.53,5.99-.66Z"/>
      <path class="cls-1" d="M172.74,375.43c0-.22,0-.44,0-.66,2.01,.13,4.11-.62,5.99,.66h-5.99Z"/>
      <path class="cls-1" d="M177.25,97c.26-2.7,2.78-3.43,4.45-4.66,6.35-4.7,13.47-7.35,21.53-6.51,4.11,.43,8,5.2,8.41,10.13,.09,1.11,.05,2.23,.07,3.35-1.81,.62-5.04-.32-4.78,2.7,.23,2.76,3.17,1.46,4.98,1.75,.36,.06,.75-.02,1.12,.01,9.12,.73,16.85,3.95,21.97,12.02,1.41,2.22,2.46,4.58,3.48,6.99,.74,1.76,2.72,2.97,3.42,.75,1.08-3.44,2.86-2.51,5.06-2.01,2.33,.53,4.54,1.3,6.6,2.48,1.54,.88,2.81,.9,3.81-.74,7.12,5.23,9.46,13.01,10.27,21.11,1.13,11.25-.67,22.06-7.73,31.42-4.42,5.86-10.04,10.2-16.76,13.12-8.69,3.49-17.27,3.83-25.68-.87,.41-1.65,2.08-2.06,3.07-3.13,.97-1.05,1.29-2.19,.3-3.32-.98-1.12-2-.56-2.96,.18-1.08,.84-2.17,1.67-3.28,2.48-11.13,8.14-28.85,8.78-39.87,1.41,.19-.31,.33-.67,.57-.93,1.08-1.2,2.67-2.47,.83-4.04-1.76-1.5-2.95,.25-4.05,1.35-1.78,1.78-3.71,3.27-5.96,4.44-11.61,6.03-23.63,7.3-36.19,3.49-.85-.26-2.38-1.86-2.8,.6-4.25-.21-6.96-3.27-9.76-5.75-11.21-9.96-13.09-28.75-4.34-40.91,.35-.49,.89-.84,1.34-1.26,1.55,1.53,2.85,1.45,4.34-.28,3.38-3.9,7.44-6.99,12.22-8.99,2.17-.91,4.55-1.63,6.91-1.03,2.09,.53,1.47,2.9,2.3,4.33,.45,.78,.83,1.58,1.94,1.37,1.01-.2,1.47-.93,1.48-1.88,.01-.99-.04-2-.21-2.97-2.02-11.67,2.84-20.62,11.41-27.86,5.61-4.73,12.17-6.57,19.52-4.76,1.28,.32,2.75,.64,3.74-.79,.85-1.23,.3-2.08-.78-2.78Zm24.64,56.54c-.22,.94-.57,1.88-.65,2.83-.23,2.55,1.7,3.16,3.56,3.34,2.04,.19,4.22-.28,4.49-2.78,.23-2.18-1.56-2.8-3.43-3.04-1.32-.17-2.72,.49-3.97-.37,.36-.33,.76-.63,1.08-1,1.31-1.5,1.5-3.14,.19-4.68-1.14-1.34-2.7-1.72-4.38-1.08-1.44,.55-2.14,1.75-2.03,3.21,.16,1.97,1.36,3.1,3.35,3.35,.6,.08,1.2,.14,1.8,.21Zm-29.85,.79c1.25,.21,2.48,.2,3.6-.48,1.53-.94,2.24-2.29,1.73-4.08-.56-1.98-1.99-2.85-3.94-2.56-1.73,.26-2.9,1.29-3.08,3.19-.13,1.3,.24,2.43,.98,3.47-2.21,.04-4.48-.16-6.3,1.52-1.01,.94-1.56,1.91-.44,3.17,1.33,1.49,5.93,1.83,7.67,.58,2.4-1.73,.25-3.23-.21-4.82Zm15.06-29.94c1.54,1.98,2.78,3.69,4.16,5.28,.77,.9,1.59,2.18,3.08,1.47,1.26-.61,1.68-1.97,1.46-3.19-.8-4.4,.97-6.45,5.38-6.44,.59,0,1.19-.34,1.77-.57,1.13-.44,2.53-.59,2.74-2.15,.23-1.69-1.03-2.89-2.21-3.08-7.6-1.17-8.21-6.39-7.94-12.55,.08-1.9-.09-4.62-2.76-5.14-2.66-.52-3.87,1.76-5.18,3.56-.22,.3-.5,.61-.57,.96-1.04,5.3-4.06,7.15-9.31,5.66-1.23-.35-2.81-.32-3.57,1.27-.7,1.47-.14,3.07,.89,3.73,5.43,3.47,4.45,7.55,1.7,12.13-.64,1.07-.87,2.75,.37,3.81,1.39,1.19,2.94,.44,4.16-.33,1.97-1.25,3.75-2.8,5.86-4.4Zm45.17,25.51c-1.25,.22-2.39,.29-3.43,.64-1.47,.49-3.5,.57-3.69,2.6-.2,2.19,1.8,2.72,3.33,3.5,.33,.17,.69,.32,1.05,.39,2.3,.45,3.29,1.71,3.18,4.16-.11,2.24,.5,4.44,1.39,6.53,.52,1.24,1.38,2.13,2.82,2.03,1.33-.09,1.84-1.19,2.22-2.25,.54-1.49,.43-3.2,1.44-4.57,2.78,.23,5.9,3.1,8.09,.66,2.22-2.47-1.54-4.43-2.41-6.82,1.54-1.07,3.12-2.03,4.54-3.19,1.25-1.02,2.6-2.22,1.96-4.09-.67-1.93-2.63-1.74-4.14-1.87-1.45-.13-3.05,.04-4.41,.55-1.98,.74-2.92-.01-3.89-1.61-1.29-2.11-2.66-4.24-4.93-5.51-2.48-1.39-4.24-.51-4.18,2.33,.05,2.08,.66,4.15,1.08,6.53Zm-94.07,14.48c1.64,1.21,3,2.27,4.43,3.24,.86,.58,1.91,.84,2.8,.18,.9-.66,1.11-1.81,.6-2.7-2.19-3.75-.21-5.53,2.98-6.99,1.21-.56,2.58-1.43,2.23-3.08-.35-1.66-1.96-2.71-3.35-2.49-5.53,.88-9.07-.91-10.51-6.53-.27-1.04-1.45-1.77-2.69-1.64-1.43,.15-2.08,1.27-2.45,2.5-.28,.94-.61,1.96-.54,2.91,.19,2.4-.35,3.76-3.18,3.54-1.47-.11-3.06,.45-3.56,2.15-.51,1.75,.65,3.09,1.98,3.62,3.07,1.24,3.57,3.29,2.85,6.2-.25,1.02-.01,2.23,.23,3.29,.69,2.97,2.78,3.61,4.75,1.32,1.34-1.56,2.21-3.54,3.41-5.54Zm49.64-7.04c2.46-.24,4.67-.97,5.76-3.42,.4-.9,.59-2-.56-2.63-1.09-.6-1.54,.3-2.06,.99-2.03,2.67-4.21,2.75-6.4,.25-.66-.75-1.33-1.27-2.2-.7-1.05,.69-.8,1.75-.28,2.65,1.27,2.2,3.45,2.66,5.75,2.87Z"/>
      <path class="cls-6" d="M217.47,188.03c8.41,4.71,16.99,4.36,25.68,.87-1.45,6.52-4.21,12.7-4.96,19.41-.72,6.46-1.17,12.93,.14,19.33,.46,2.23-.15,3.43-1.84,4.69-9.22,6.89-19.9,10.1-30.92,12.44-14.93,3.18-29.84,3.84-44.74-.32-4.34-1.21-8.44-2.97-12.53-4.8-2.02-.9-2.95-2.35-3.34-4.53-2.48-13.78-6.37-27.1-13.14-39.46,.97-1,2.08-.46,3.16-.27,11.59,2.12,22.58,.25,32.89-5.31,2.17-1.17,3.72-1.1,5.81-.04,12.16,6.15,24.53,6.71,37.11,1.16,2.26-1,4.07-2.93,6.67-3.19Zm-46.15,33.64c1.21-1.72,4.46-2.25,3.5-4.83-.9-2.42-3.68-2.23-5.88-2.17-1.9,.05-2.96-.71-3.84-2.29-.78-1.4-1.76-2.72-2.83-3.92-.98-1.1-2.13-2.34-3.84-1.42-1.42,.76-1.75,2.31-1.32,3.59,1.24,3.71,.27,5.42-3.82,5.69-2.02,.13-3.52,2.78-1.28,3.43,5.55,1.61,6.38,5.34,6.39,10.03,0,.23,.16,.47,.28,.69,1.29,2.28,2.76,2.35,4.12,.03,.91-1.56,1.54-3.28,2.25-4.81,2.97,.24,5.28,3.85,7.8,1.79,2.04-1.67-.88-3.65-1.52-5.81Zm55.08-7.41c.22,.3,.47,.59,.65,.91,.6,1.05,.88,2.75,2.34,2.53,1.79-.27,1.5-2.09,1.41-3.37-.11-1.67,.76-2.08,2.11-2.41,1.67-.4,2.67-1.75,.99-2.8-2.54-1.6-2.83-3.68-2.7-6.24,.07-1.41-.32-2.88-2.01-3.1-1.42-.18-2.42,.89-2.72,2.11-.67,2.69-2.29,3.54-4.88,3.23-.85-.1-1.86,.08-2.22,1.01-.44,1.13,.34,1.96,1.19,2.47,1.48,.88,1.59,1.85,.94,3.38-.68,1.61-1.99,3.79,.18,4.95,1.86,.99,2.95-1.13,4.12-2.34,.15-.15,.38-.21,.61-.33Zm-43.52,23.14c1.31-1.67,2.77-3.41,4.02-5.28,.24-.35-.61-.95-1.27-1.08-.69-.13-1.42,0-1.76-.97-.95-2.69-1.36-1.66-3.25-.23-2.99,2.27-3.76,3.12,.21,4.58,.33,.12,.29,1.14,.5,1.72,.22,.59,.57,1.1,1.55,1.26Zm33.66-43.17c-1.03,1.98-2.57,3-4.41,4.39,2.39,.15,2.94,2.24,4.75,3.8,.01-2.95,3.04-2.47,4.11-4.65-2.18-.38-3.67-1.34-4.45-3.53Zm-65.72,12.74c-.39-.91-.93-1.96-2.25-1.9-1.05,.05-1.9,.7-1.96,1.87-.07,1.42,.9,2.03,2.13,2.02,1.06,0,1.86-.62,2.09-1.99Z"/>
      <path class="cls-5" d="M157.28,288.76c-.81,.78-1.58,1.6-2.43,2.32-3.39,2.87-5.09,2.84-8.54-.29-2.24,2.07-4.87,3.73-7.78,1.45-2.86-2.23-2.64-5.42-1.76-8.57,.87-3.14,2.84-5.39,5.47-7.3,3.19-2.31,5.85-.01,8.65,.69,1,.25,.59,1.69,.49,2.69-.32,2.93-1.64,5.77-.88,8.82,2.2,.65,2.86-1.2,3.9-2.28,2.38-2.47,3.73-5.57,5-8.69,.98-2.41,2.66-3.03,5.68-2.16-4.3,5.54,2.83,8.24,2.68,13.19,3.06-1.69,5.29-3.5,4.89-7.23-.13-1.26,.17-2.53-1.77-2.54-1.23,0-1.74-.88-1.62-2.03,.1-.94,.61-1.77,1.65-1.69,2.37,.18,2.38-1.45,2.77-3.08,.81-3.39,1.83-6.75,4.08-9.54,1.49-1.84,3.32-3.37,5.77-2.33,2.31,.98,2.3,3.34,2.22,5.5-.12,3.4-1.84,6.13-3.92,8.61,.21,.3,.3,.55,.47,.65,1.23,.67,3.96-1.03,3.73,1.62-.25,2.92-3.1,2.11-5.1,2.38-1.23,.17-3.2-.83-3.51,.98-.47,2.79-.7,5.87,1.43,8.18,1.34,1.45,3.22,.99,4.86,.11,1.53-.82,1.72-2.2,1.77-3.8,.11-3.46,1.61-6.26,4.62-8.06,3.08-1.84,6.49-1.33,8.03,1.08,1.63,2.55,.68,6.2-2.26,8.13-1.41,.92-3.01,1.56-4.79,2.46,2.42,2.11,4.61,1.4,6.73,.33,2.05-1.04,3.61-2.24,3.45-5.1-.33-6.03,.8-11.92,2.87-17.59,.72-1.97,1.69-3.89,2.84-5.65,1.2-1.82,2.94-3.29,5.33-2.61,2.41,.69,2.9,2.87,3.08,5.06,.34,4.09-.8,7.91-2.33,11.62-1.48,3.58-3.33,6.96-5.56,10.13-.79,1.13-1.71,2.29-.68,3.71,.74,1.02,1.83,1.22,3.01,.85,1.52-.47,2.7-1.25,2.84-3.04,.09-1.11,.17-2.24,.41-3.33,.55-2.54,1.89-4.59,4.16-5.95,3.23-1.93,6.84-1.45,8.31,1.1,1.47,2.54,.37,6.28-2.53,8.1-1.35,.85-2.88,1.4-4.34,2.09,2.86,2.76,8.67,1.09,9.58-2.76,.4-1.69,.42-3.47,.83-5.16,.51-2.16,1.04-5.15,3.94-4.37,2.96,.79,.47,3.28,.47,5.01-.24,.66-.63,1.35,.46,1.85,.3-.69,.58-1.34,.87-2,1.29-1.85,2.62-3.66,4.82-4.55,2.85-1.16,4.21-.16,4.28,2.9,.03,1.48-1.48,3.95,.42,4.27,2.64,.45,1.65-2.7,2.46-4.17,.29-.53,.34-1.19,.57-1.77,.62-1.54,1.86-2.03,3.33-1.56,1.39,.44,1.25,1.63,1.02,2.81-.47,2.45-.96,4.89-1.25,7.36-.13,1.12-.64,2.84,1.1,3.06,1.49,.2,2.44-1.03,2.84-2.48,.37-1.32,.58-2.69,1.09-3.95,2.42-5.98,7.23-7.99,12.97-5.61,1.63,.68,1.28,1.81,1.14,3.08-.32,2.93-1.64,5.77-.86,8.86,2.46,.54,3.18-1.61,4.5-2.75,.66-.57,1.22-1.43,2.2-.8,.72,.46,.7,1.36,.47,2.05-.93,2.78-3.05,4.55-5.56,5.75-2.28,1.09-4.07-.08-5.63-2.11-2.73,2.41-5.59,3.78-8.83,.92-1.07-.95-1.77,.37-2.57,.74-3.73,1.72-5.84,.96-7.35-2.78-.36-.89-.33-2.09-1.79-1.9-4.72,.62-5.79-2.23-5.55-6.56-3.11,2.43-3.76,5.62-4.79,8.62-.46,1.34-.49,3.04-2.45,3.38-1.74,.3-2.16-1.28-3.12-2.12-4.47,2.45-8.91,3.49-13.33,.1-1-.77-1.56,.07-2.28,.48-4.55,2.59-6.65,2.3-10.35-1.58-3.04,2.08-6.52,4.34-10.19,2.95-3.73-1.42-6.79-1.46-10.52,0-3.21,1.25-5.04-.09-8.44-3.81-2.54,3.37-6.58,3.64-10.18,4.71-3.42,1.01-5.11-.65-4.89-4.16,1.14-1.25,2.99-.69,4.3-1.45-.09-1.78-1-2.82-2.2-4.1-1.09,1.71-2,3.15-2.92,4.59Zm48.99-9.18c3.26-5.53,6.22-11.18,4.55-18.05-3.82,5.37-4.11,11.71-4.55,18.05Zm58.59-.91c-3.61,1.62-5.07,4.03-5.35,7.2-.11,1.28-.53,3.01,1.38,3.34,1.52,.26,2.11-1.11,2.49-2.31,.77-2.47,1.41-4.98,1.49-8.23Zm-118.15-.16c-4.02,2.06-5.58,4.73-5.53,8.41,.01,1.01,.09,2.09,1.37,2.32,1.22,.22,1.87-.69,2.25-1.59,1.14-2.64,1.54-5.44,1.91-9.14Zm34.56-15.35c-2.59,3.34-3.08,6.7-3.46,10.49,3.84-2.65,5.15-6.34,3.46-10.49Zm8.78,21.65c2.72-.73,4.79-1.56,4.89-4.28,.04-1.06-.95-1.92-2.06-1.46-2.35,.97-2.99,2.96-2.83,5.74Zm27.59-.45c2.53-.46,4.25-1.3,4.4-3.72,.06-1.05-.8-1.71-1.72-1.38-2.17,.77-2.79,2.54-2.68,5.1Z"/>
      <path class="cls-5" d="M168.52,330.04c.89-.43,1.75-.99,2.69-1.28,2.56-.8,3.98,.25,3.73,2.89-.23,2.47-.91,4.89-1.28,7.35-.15,1.03-.73,2.54,.79,2.85,1.51,.31,2.58-.83,2.94-2.27,.3-1.19,.22-2.48,.46-3.69,.65-3.27,2.4-5.72,5.61-6.92,2.54-.95,5.1-.97,6.69,1.52,1.68,2.64,.98,5.24-1.15,7.47-1.51,1.58-3.71,1.9-5.86,3.17,1.74,1.82,3.65,1.67,5.45,.95,2.17-.87,4.48-1.75,4.88-4.6,.26-1.85,.58-3.68,.92-5.52,.37-2.03,1.36-3.82,3.63-3.41,2.8,.5,.59,2.59,.83,3.94,.08,.47,.01,.96,.01,1.98,1.82-1.87,2.83-3.95,4.78-5.03,1.31-.73,2.67-1.5,4.2-.58,1.49,.9,1.06,2.33,.94,3.69-.1,1.21-.6,2.45,.11,3.68,1.6,.48,1.86-.59,2.09-1.76,.19-.98,.46-1.94,.7-2.91,.46-1.9,1.54-3.38,3.6-3.02,2.55,.45,.76,2.35,.83,3.62,.03,.59-.07,1.19-.17,2.53,1.93-2.13,2.98-4.18,4.95-5.27,1.31-.73,2.68-1.49,4.2-.54,1.47,.92,1.01,2.36,.9,3.71-.1,1.21-.61,2.45,.14,3.66,1.83,.51,2.02-.93,2.4-2.06,.43-1.3,.67-2.67,1.18-3.93,.59-1.44,1.88-2.13,3.34-1.71,1.76,.52,.98,2,.79,3.15-.49,2.87-1.73,5.66-.96,8.99,2.34-.71,2.79-2.63,3.47-4.23,.87-2.06,1.46-4.23,2.26-6.32,.51-1.33,1.66-1.94,3.01-1.6,1.53,.39,1.11,1.66,.94,2.78-.48,3.16-.93,6.32-1.4,9.54,1.94,.11,2.74-1.25,3.94-1.82,.93-.44,1.9-1.86,2.88-.6,.99,1.27,.35,2.59-.95,3.49-1.23,.85-2.4,1.83-3.71,2.51-2.41,1.24-3.59,3.09-4.06,5.78-.6,3.43-1.71,6.77-3.57,9.77-1.99,3.21-4.98,4.4-7.53,3.09-2.49-1.28-3-4.44-1.25-7.95,1.73-3.48,5.03-5.67,8.12-9.24-5.27,1.4-6.83-1.24-7.4-4.9-5.86-.17-6.09-.37-7.11-6.26-2.87,2.04-3.41,5.13-4.4,7.95-.55,1.58-.57,3.73-3.03,3.57-2.23-.15-2.11-2.08-2.4-3.64-.15-.85-.22-1.86-1.47-1.73-4.28,.45-6.01-1.65-5.32-6.83-3.41,2.89-4.11,5.97-5.08,8.91-.41,1.26-.5,2.77-2.14,3.25-1.93,.57-2.5-1.1-3.47-2.16-4.4,2.51-8.84,3.65-13.29,.31-1.16-.87-1.79-.15-2.58,.41-2.16,1.56-4.6,2.39-6.95,.88-2.44-1.57-1.46-4.25-1.31-6.55,.1-1.46,.97-2.85,.33-4.61-2.86,1.96-3.44,5.07-4.42,7.93-1.39,4.05-1.98,4.34-5.87,2.48-1.1-.53-1.89,.15-2.81,.38-4.4,1.11-8.84,1.63-13.29,.41-5.68-1.56-8.91-5.34-9.45-11.16-.49-5.25,.58-10.18,3.79-14.48,3.41-4.56,8-6.62,13.68-6.02,4.89,.51,7.87,5.11,6.43,9.81-.5,1.64-1.31,3.13-3.36,2.81-2.15-.34-1.78-2.08-1.62-3.54,.33-3.01-.54-4.89-3.99-4.74-4.68,.21-8.39,4.59-9.3,11.07-.84,5.99,1.13,10.17,5.63,11.65,4.52,1.5,8.86,.38,13.14-1.15,1.6-.57,1.26-1.94,1.29-3.14,.13-6.14,1-12.16,2.98-17.99,.8-2.36,1.75-4.69,3.53-6.52,1.35-1.4,2.94-2.46,4.98-1.67,1.97,.77,2.64,2.49,2.77,4.49,.19,2.96-.55,5.71-2,8.24-1.17,2.05-2.54,3.99-3.82,5.98-.2,.24-.41,.49-.62,.73-.18,.09-.3,.22-.39,.39-1.93,1.52-3.6,3.14-2.58,6.34,1.25-2.05,2.31-3.8,3.37-5.55,.15-.13,.23-.3,.23-.51,.26-.24,.53-.48,.79-.72Zm67.53,15.07c.01-.53,.02-1.06,.03-1.59-.24,.33-.48,.66-.72,.99-.4,.49-1.51,.92-.52,1.61,.58,.4,.97-.44,1.2-1.01Zm-71.34-18.22c-.21,.42-.34,1.02,.24,1,.34-.01,.65-.75,.98-1.16,2.35-3.73,4.83-7.44,3.11-13.14-3.18,4.58-3.37,9.07-4.33,13.31Zm70.26,23.66c-2.71,2.05-4.33,3.99-5.2,6.5-.31,.91-.6,2.07,.59,2.58,1.2,.52,1.82-.49,2.29-1.34,1.18-2.15,2.16-4.39,2.32-7.74Zm-52.5-13.05c2.53-.46,4.25-1.3,4.4-3.72,.06-1.05-.8-1.71-1.72-1.38-2.17,.77-2.79,2.54-2.68,5.1Z"/>
      <path class="cls-5" d="M106.06,284.14c-.06-5.13,.84-9.88,3.31-14.2,3.53-6.15,8.85-9.28,16.01-9.03,4.29,.15,7.8,1.75,9.57,5.92,1.63,3.86,.28,8.9-3.06,11.94-2.28,2.08-5.03,3.33-8.02,3.69-2.05,.24-2.72,1.1-2.9,3.02-.19,2.1-.76,4.16-1.14,6.24-.47,2.58-1.34,4.92-4.32,5.4-3,.48-5.37-.79-7.09-3.19-2.13-2.98-2.53-6.43-2.36-9.79Zm7.18,8.18c1.24-.54,1.47-1.56,1.45-2.31-.08-2.89,3.22-6.28-1.38-8.63-1-.51-.31-2.48,.97-2.47,3.07,0,2.75-2.16,3.08-4.03,.24-1.35,.46-2.7,.79-4.02,.43-1.69,1.63-2.51,3.32-2.32,2.11,.24,1.97,1.85,1.85,3.4-.17,2.19-1.28,4.3-.59,6.59,1.5,.05,2.78-.44,3.9-1.23,2.87-2,3.87-4.85,2.99-8.17-.85-3.2-3.45-3.93-6.42-3.95-4.28-.03-7.38,2.01-9.53,5.53-3.42,5.59-3.87,11.73-2.89,18.02,.22,1.41,.74,2.92,2.45,3.6Z"/>
      <path class="cls-4" d="M217.47,188.03c-2.6,.26-4.41,2.2-6.67,3.19-12.58,5.55-24.95,4.99-37.11-1.16-2.09-1.06-3.64-1.13-5.81,.04-10.31,5.55-21.3,7.42-32.89,5.31-1.07-.2-2.18-.74-3.16,.27-1.57-1.24-3.21-2.41-4-4.36-.25-.26-.5-.52-.75-.78,0,0,.06,.02,.06,.02,.42-2.46,1.95-.86,2.8-.6,12.56,3.82,24.58,2.54,36.19-3.49,2.25-1.17,4.18-2.66,5.96-4.44,1.1-1.1,2.29-2.85,4.05-1.35,1.84,1.56,.25,2.84-.83,4.04-.24,.27-.38,.62-.57,.93,11.02,7.37,28.74,6.73,39.87-1.41,1.11-.81,2.19-1.64,3.28-2.48,.96-.74,1.98-1.29,2.96-.18,1,1.14,.67,2.27-.3,3.32-.99,1.08-2.67,1.48-3.07,3.13Z"/>
      <path class="cls-3" d="M177.25,97c1.09,.69,1.63,1.55,.78,2.78-.99,1.43-2.45,1.1-3.74,.79-7.35-1.81-13.91,.02-19.52,4.76-8.57,7.24-13.43,16.18-11.41,27.86,.17,.97,.23,1.98,.21,2.97-.01,.94-.48,1.68-1.48,1.88-1.1,.22-1.48-.59-1.94-1.37-.83-1.43-.21-3.8-2.3-4.33-2.36-.6-4.74,.12-6.91,1.03-4.78,2.01-8.84,5.09-12.22,8.99-1.5,1.73-2.79,1.81-4.34,.28,.19-3.79,3.44-5.38,5.76-7.4,4.16-3.61,8.9-6.39,14.6-6.97,3.04-.31,3.95-1.79,4.52-5,2.4-13.54,13.4-26.02,28.47-27.67,3.24-.35,6.4,.54,9.52,1.4Z"/>
      <path class="cls-3" d="M257.37,123.25c-1,1.64-2.27,1.62-3.81,.74-2.06-1.18-4.28-1.95-6.6-2.48-2.2-.5-3.98-1.43-5.06,2.01-.7,2.22-2.68,1.01-3.42-.75-1.02-2.41-2.07-4.77-3.48-6.99-5.12-8.07-12.85-11.3-21.97-12.02-.37-.03-.75,.04-1.12-.01-1.81-.29-4.75,1.01-4.98-1.75-.26-3.02,2.98-2.08,4.78-2.7,5.09,.99,10.33,1.16,15.08,3.72,5.03,2.72,9.48,5.95,12.12,11.16,.84,1.65,1.98,2.24,3.82,2.35,4.39,.26,8.53,1.49,12.39,3.67,1.26,.71,2.38,1.38,2.24,3.05Z"/>
      <path class="cls-5" d="M157.46,30.09c-1.71,.3-3.41,.67-5.14,.89-1,.13-2.41,.85-2.7-.88-.25-1.53,1.23-1.32,2.06-1.52,2.66-.64,5.34-1.17,8.03-1.68,.8-.15,1.77-.7,2.42,.14,.71,.92,.23,1.87-.27,2.77-1.95,3.58-3.87,7.18-5.95,11.05,2.75,.67,4.9-.5,7.14-.71,.78-.07,1.82-.62,2.16,.67,.39,1.49-.76,1.54-1.74,1.75-4.12,.89-8.25,1.8-12.37,2.71-.76,.17-1.42,.14-2.12-.31-4.26-2.72-8.28-1.47-9.92,3.15-.44,1.23-1.3,1.3-2.77,1.47,.62-5.39,1.02-10.66,1.92-15.85,.49-2.79,2.36-2.48,3.99-.66,3.05,3.41,6.04,6.87,9.27,10.56,2.4-4.53,4.61-8.69,6.82-12.86,.41-1.08-.02-1.12-.84-.69Zm-16.99,5.15c-.5,2.8-.84,4.8-.47,7.09,1.8-.58,3.33-1.08,5.01-1.63-1.11-2.03-2.56-3.5-4.55-5.46Z"/>
      <path class="cls-5" d="M326.2,133.65c-1.83-.69-2.58-1.62-1.24-3.55,2.14-3.09-.34-8.69-4.08-8.98-2.4-.19-2.62-2.14-3.45-3.44-4.53-7.06-4.47-7.09,2.78-11.31,1.83-1.06,3.64-2.15,5.47-3.2,.83-.48,1.55-.64,2.16,.45,.64,1.15-.06,1.55-.84,2.01-3.32,1.93-6.63,3.87-10.13,5.91,1.11,2.07,2.21,3.86,3.04,5.78,.63,1.44,1.74,1.16,2.8,1.14,3.61-.05,7.22-.14,10.83-.24,1.17-.03,2.14,.07,2.78,1.33,.7,1.38-.24,2.05-.9,2.92-2.72,3.6-6.65,6.22-8.52,10.5l.08-.07c-.76-.23-.92,.15-.82,.8l.04-.06Zm2.46-7.62c1.53-1.69,2.83-3.13,4.5-4.97h-6.79c.27,1.84,.99,3.23,2.29,4.97Z"/>
      <path class="cls-13" d="M331.47,160.73c4.65-3.42,8.5-7.01,7.87-13.47,3.87,4.52,8.17,7.31,14.28,7.17-4.27,3.63-8.22,7.21-8.2,13.62-3.21-5.34-7.82-7.47-13.95-7.33Z"/>
      <path class="cls-13" d="M19.7,189.43c.02-5.97-2.48-10.44-7.74-14.48,6.47,.08,11.5-.77,15.08-6.02-.38,6.21,1.91,10.83,7.04,14.12-5.85,.07-10.97,.92-14.38,6.37Z"/>
      <path class="cls-5" d="M115.49,48.34c1.19,2.46,2.35,4.94,3.57,7.38,.43,.86,.72,1.59-.38,2.15-1.06,.54-1.62,0-2.05-.88-1.84-3.8-3.68-7.6-5.52-11.4-.32-.67-.74-1.32,.13-1.93,.91-.63,1.78-.67,2.78-.15,3.41,1.79,6.85,3.52,10.74,5.51-.55-3.14-2.33-5.35-3.31-7.86-.33-.85-1.27-1.76,.08-2.55,1.59-.94,1.91,.45,2.37,1.38,1.71,3.45,3.38,6.92,5.04,10.39,.36,.75,1.08,1.58,.18,2.33-.77,.64-1.64,.9-2.73,.31-3.16-1.72-6.4-3.31-9.6-4.95-.39-.17-.78-.48-1.16-.46-.39,.02-.41,.42-.13,.73Z"/>
      <path class="cls-5" d="M81.9,82.81c-.06,4.64-4.37,8.82-8.96,8.69-4.18-.12-7.79-3.8-7.82-7.97-.04-4.61,4.18-8.87,8.79-8.87,4.32,0,8.05,3.81,7.99,8.16Zm-8.53,5.94c3.13,.05,5.76-2.51,5.79-5.62,.03-3.03-2.3-5.51-5.3-5.64-3.21-.14-5.81,2.22-5.95,5.4-.14,3.19,2.31,5.82,5.46,5.87Z"/>
      <path class="cls-5" d="M218.88,27.31c2.91,.78,5.63,1.24,8.12,2.24,3.56,1.42,5.02,5.99,2.16,8.16-3.38,2.57-2.62,4.91-1.21,7.82-2.4,.52-3.19-.7-3.57-2.43-.46-2.11-1.36-3.62-3.85-3.77-2.48-.14-1.84,1.82-2.33,3.05-.31,.79-.77,1.17-1.7,.94-1.21-.29-1.17-1.09-.96-2,1.08-4.57,2.17-9.14,3.34-14.03Zm1.88,2.95c.73,2.55-3.38,5.19,.97,6.74,2.25,.81,5.49,1.63,5.83-2.08,.42-4.53-3.86-3.33-6.8-4.66Z"/>
      <path class="cls-5" d="M104.51,48.96c4.46,0,8.2,3.62,8.17,7.93-.03,4.44-4.11,8.5-8.66,8.61-4.37,.11-8.23-3.51-8.33-7.83-.11-4.63,4.02-8.71,8.82-8.72Zm5.33,8.33c.09-3.1-2.43-5.75-5.52-5.82-3.04-.07-5.68,2.47-5.79,5.57-.11,3.24,2.2,5.64,5.48,5.7,3.2,.06,5.74-2.32,5.83-5.45Z"/>
      <path class="cls-5" d="M297.77,66.85c2.27,2.28,4.28,3.98,5.89,6.01,2.41,3.04,1.62,7.3-1.99,8.24-3.58,.93-5.61,2.34-5.32,6.34-4.89-2.29,2.04-8.7-4.37-9.92-1.64-.2-2.42,3.85-4.2,1.7-1.77-2.15,1.54-3.07,2.63-4.41,2.26-2.77,4.84-5.27,7.36-7.96Zm-3.98,8.32c2.06,1.84,3.24,4.38,6.27,3.86,1.16-.2,2.05-1.08,2.16-2.29,.28-3.02-2.32-4.09-4.13-6-1.39,1.43-2.68,2.75-4.3,4.43Z"/>
      <path class="cls-5" d="M42.82,137.41c-.84,2.64-1.63,5.1-2.44,7.6,1.27,1.26,2.99,1.23,4.42,1.84,.83,.36,1.68,.56,1.39,1.77-.29,1.18-1.03,1.21-1.99,.9-4.15-1.31-8.31-2.61-12.46-3.9-.85-.26-1.28-.77-.97-1.66,.26-.74,.65-1.38,1.63-1.05,.24,.08,.46,.22,.7,.26,1.56,.22,3.31,1.87,4.54,.81,1.68-1.46,1.62-4.07,2.37-6.16,.52-1.43-.74-1.58-1.67-1.88-1.06-.35-2.14-.65-3.19-1.04-.8-.29-1.15-.86-.89-1.76,.28-.96,.97-1.09,1.74-.85,4.16,1.28,8.32,2.58,12.46,3.93,.66,.21,1.49,.48,1.16,1.54-.31,1-.91,1.43-1.96,1.11-1.53-.47-3.07-.93-4.82-1.47Z"/>
      <path class="cls-5" d="M46.22,128.09c2.77,2.31,4.16,1.84,5.37-1.21,.63-1.59,.58-5.27,3.3-4.09,1.8,.78-.63,3.34-1.18,5.07-.6,1.87-1.57,3.62-2.53,5.77-4.54-1.98-8.93-3.9-13.32-5.81-.23-.1-.5-.16-.67-.32-.89-.84-.18-1.69,.19-2.35,1.48-2.65,1.68-6.09,4.3-7.94,.79-.56,1.63,.65,1.04,1.91-.69,1.46-1.17,3.02-1.94,4.43-.91,1.64-.37,2.39,1.19,3.11,1.67,.77,2.22-.08,2.73-1.37,.51-1.26,1.06-2.51,1.63-3.75,.33-.73,.76-1.21,1.72-.77,.96,.44,.85,1.05,.52,1.81-.77,1.82-1.54,3.64-2.34,5.54Z"/>
      <path class="cls-5" d="M58.71,100.03c1.6-2.24,3.09-4.34,4.57-6.41-.96-1.66-2.53-2.26-3.76-3.27-.78-.64-1.69-1.13-.72-2.35,1.01-1.27,1.77-.29,2.51,.22,3.26,2.29,6.48,4.62,9.71,6.95,.8,.57,1.76,1.06,.77,2.32-.99,1.26-1.81,.48-2.46-.19-2.73-2.81-4.45-1.98-6.49,1.06-1.69,2.51-1.9,3.93,.9,5.46,.86,.46,2.72,.92,1.57,2.69-1.21,1.87-2.15,.13-2.99-.44-2.99-2.02-5.92-4.12-8.81-6.28-.75-.56-2.34-.92-1.31-2.48,1.21-1.82,2.11-.17,3.03,.36,1.16,.67,2.23,1.49,3.5,2.35Z"/>
      <path class="cls-5" d="M262.8,45.55c-2.52,2.42-2.3,4.04,.65,5.17,.8,.31,1.52,.83,2.29,1.26,.79,.44,1.62,.86,.87,1.97-.55,.82-1.26,.61-1.95,.25-1.75-.92-3.49-1.87-5.35-2.87-.72,1.25-1.33,2.3-2.12,3.69,2.14,1.19,4.18,2.32,6.2,3.47,.73,.41,1.74,.72,1.1,1.91-.57,1.06-1.36,.79-2.2,.32-2.81-1.56-5.63-3.09-8.72-4.78,2.31-4.25,4.5-8.25,6.65-12.27,.61-1.13,1.23-1.82,2.6-1.04,2.37,1.36,4.78,2.66,7.18,3.97,.77,.42,1.12,.99,.69,1.81-.46,.87-1.14,.73-1.88,.33-1.96-1.06-3.94-2.1-5.99-3.19Z"/>
      <path class="cls-5" d="M310.18,83.42c-2.9,1.24-3.92,2.69-1.36,4.95,.28,.24,.57,.53,.71,.86,.47,1.1,2.75,1.92,1.14,3.31-1.65,1.42-2.05-.94-2.95-1.66-.67-.53-1.2-1.27-1.69-1.99-1.06-1.53-1.98-.84-3.06,.02-1.1,.87-1.32,1.66-.34,2.77,1.16,1.31,2.24,2.67,3.34,4.02,.55,.67,1.23,1.32,.25,2.21-1.04,.95-1.56,.06-2.09-.58-2-2.39-3.97-4.8-6.34-7.67,4.03-3.34,7.99-6.63,12.11-10.05,2.72,2.2,4.46,5.08,6.67,7.53,.56,.62,.76,1.24-.03,1.89-.78,.64-1.34,.33-1.88-.32-1.51-1.79-3.02-3.57-4.48-5.3Z"/>
      <path class="cls-5" d="M166.09,28.8c.34-.97-1.13-2.92,1.3-2.99,1.98-.06,1.38,1.69,1.53,2.79,.28,1.96,.45,3.95,.61,5.93,.24,3.05,1.8,4.56,4.88,4.18,3.03-.37,3.75-2.47,3.52-5.12-.18-2.1-.49-4.19-.62-6.3-.06-1.01-.61-2.43,1.13-2.64,1.74-.21,1.56,1.22,1.68,2.27,.25,2.22,.49,4.44,.64,6.67,.31,4.56-2.1,7.38-6.59,7.77-4.15,.37-6.92-2.06-7.43-6.52-.23-1.97-.43-3.95-.65-6.04Z"/>
      <path class="cls-5" d="M326.9,132.98c1.69-.13,3.1,.02,2.32,2.35-.04,.11-.04,.25-.04,.37,.03,2.18-.51,5.27,2.43,5.34,2.77,.07,1.78-2.94,1.85-4.75,.09-2.17,.07-4.36,2.48-5.35,1.94-.79,3.68-.3,5,1.35,1.73,2.16,2.26,4.65,1.8,7.36-.13,.77-.7,.9-1.39,.86-.99-.07-1.13-.63-1.13-1.5,0-2.06,.32-5.15-2.26-5.07-2.85,.08-1.6,3.29-1.78,5.17-.24,2.38-.58,4.55-3.36,5.08-3.03,.59-4.53-1.34-5.72-3.71-1.1-2.18-.21-4.6-.91-6.82,0,0-.04,.06-.04,.06,.9,.38,.67-.4,.82-.8l-.08,.07Z"/>
      <path class="cls-5" d="M197.45,39.41c3.18-3.35,4.84-7.67,7.35-11.45,.75-1.13,1.2-2.42,3.03-2.15,1.76,.26,1.63,1.71,1.97,2.78,1.42,4.48,2.72,8.99,4.11,13.63-1.62,.48-2.52,.39-3.24-1.36-1.42-3.45-7.28-4-9.86-1.08-1.31,1.49-2.51,2.11-3.32-.41l-.04,.04Zm9.63-10.04c-1.49,2.03-2.8,3.71-3.24,6.02,1.78,.13,3.34,.74,4.94-.04-.08-2.06-.71-3.87-1.7-5.98Z"/>
      <path class="cls-5" d="M268.2,58.99c1.17,1.7,1.81,3.85,3.85,4.85,.91,.45,1.94,.79,2.78-.03,.86-.84,.55-1.85-.03-2.71-.83-1.24-1.8-2.38-2.61-3.63-1.05-1.61-1.12-3.27,.08-4.85,1.1-1.46,2.63-1.79,4.34-1.44,2.61,.53,4.42,2.17,5.82,4.32,.44,.68,.57,1.33-.22,1.93-.94,.72-1.44,.37-2.09-.48-1.24-1.61-2.78-4.37-4.83-2.69-2.33,1.9,.82,3.59,1.79,5.2,1.25,2.08,2.12,4.06,.34,6.14-1.88,2.19-4.2,1.79-6.45,.61-1.93-1.01-3.27-2.61-4.24-4.57-.8-1.62-.04-2.27,1.49-2.65Z"/>
      <path class="cls-5" d="M197.49,39.38c-1.39-.97-2.19,.51-3.23,.85-3.8,1.23-7.73,.09-9.91-3.07-1.97-2.86-1.74-7.07,.53-9.71,2.51-2.91,6.7-3.85,10.17-2.08,.88,.45,2.84,.6,1.87,2.45-.86,1.63-1.82,.27-2.76-.12-3.5-1.48-6.93-.2-7.99,2.98-.72,2.18-.35,4.19,1.29,5.85,1.78,1.81,4.22,2.25,6.18,1.11,2.62-1.52,3.32-.48,3.8,1.78,0,0,.04-.04,.04-.04Z"/>
      <path class="cls-5" d="M90.77,74.71c-4.36-.07-7.83-3.48-7.9-7.78-.08-4.31,3.62-8.51,7.66-8.7,.75-.04,1.56-.15,1.82,.82,.29,1.08-.24,1.64-1.29,1.79-.49,.07-1,.12-1.47,.27-2.74,.86-4.07,2.83-3.98,5.61,.08,2.46,1.37,4.22,3.79,4.98,2.74,.86,4.79-.18,6.56-2.29,.8-.96,.58-3.85,2.69-2.46,1.71,1.13-.12,2.94-.92,4.15-1.59,2.43-3.97,3.69-6.96,3.61Z"/>
      <path class="cls-5" d="M45.32,110.4c.08-2.84,1.64-5.35,4.53-7.06,.83-.49,1.66-.67,2.17,.42,.4,.86-.04,1.34-.82,1.73-1.89,.97-3.06,2.53-3.35,4.64-.39,2.84,1.84,5.65,4.79,6.14,2.67,.44,5.52-1.43,6.22-4.18,.18-.71,.16-1.48,.19-2.22,.03-.79,.12-1.5,1.14-1.57,1.32-.09,1.27,.93,1.38,1.75,.59,4.39-3.33,8.85-7.95,9.04-4.59,.19-8.34-3.47-8.3-8.69Z"/>
      <path class="cls-5" d="M239.84,32.94c4.34,1.85,1.89,6.44,4.07,8.87,3.24-.36,4.42-5.51,9.18-3.79-2.41,2.06-4.36,3.91-6.5,5.51-2.08,1.55-3.48,3.47-4.17,5.94-.23,.84-.76,1.29-1.64,1.03-.76-.22-1.47-.69-1-1.59,2.73-5.12-.23-10.2,.07-15.98Z"/>
      <path class="cls-5" d="M287.76,62.47c-.45-2.11-4.28-2.54-2.61-4.38,1.83-2,3.08,1.29,4.58,2.18,1.69,1,3.11,2.44,4.65,3.7,.67,.55,1.47,1.05,.57,2.07-.67,.76-1.39,.6-1.89,0-2.64-3.18-4.03-.83-5.57,1.16-1.29,1.67-2.59,3.33-4.01,4.89-.72,.79-1.19,2.66-2.8,1.42-1.89-1.46,.16-2.35,.82-3.23,2-2.68,4.17-5.23,6.25-7.81Z"/>
      <path class="cls-13" d="M45.68,170.63c-3.34,.02-6,1-8.06,4.13-.66-3.41-1.35-6.25-4.03-8.49,3.03-1.07,6.11-1.26,8.27-4.48,.5,3.68,1.22,6.6,3.82,8.84Z"/>
      <path class="cls-5" d="M310.44,101.67c1.07,1.57,1.98,2.89,2.88,4.22,.49,.73,1.07,1.46-.04,2.17-.83,.54-1.39,.15-1.86-.52-1.28-1.83-2.53-3.68-3.81-5.51-.83-1.18-.04-1.8,.81-2.39,3.37-2.33,6.74-4.65,10.11-6.97,.73-.5,1.44-1.03,2.19,.01,.84,1.17,.12,1.77-.76,2.38-3.15,2.17-6.29,4.36-9.53,6.61Z"/>
      <path class="cls-13" d="M329.51,177.65c2.58-2.18,3.84-4.64,4.38-7.98,2.13,2.77,4.79,3.93,8.03,4.7-2.4,2.21-4.36,4.27-4.54,7.81-2.45-2.28-4.61-4.27-7.87-4.53Z"/>
      <path class="cls-5" d="M250.66,272.87c-1.82-.13-3.19-.83-3.09-2.91,.11-2.16,1.58-3.01,3.54-3.01,1.82,0,3.26,.77,3.13,2.85-.13,2.1-1.62,2.92-3.58,3.08Z"/>
      <path class="cls-13" d="M348.82,178.21c1.3-1.82,2.34-3.28,2.66-5.55,1.69,1.49,3.23,2.41,5.24,3.05-1.05,1.58-2.45,2.73-2.43,4.78-2.17-.41-3.08-2.79-5.47-2.28Z"/>
      <path class="cls-13" d="M24.79,161.55c-.33-2.51-1.52-3.81-2.32-5.57,1.76-.64,3.64-.65,5.16-2.15,.64,2.1,1.01,3.9,3.12,5.19-2.36,.81-4.39,.48-5.97,2.53Z"/>
      <path class="cls-5" d="M175.68,21.06c-1.12,1.23-1.88,2.8-4.31,2.25,1.09-1.7,1.24-4.33,4.31-2.25Z"/>
      <path class="cls-12" d="M234.84,280.36c-.29,.66-.57,1.31-.87,2-1.09-.51-.7-1.2-.46-1.85,.44-.05,.89-.1,1.33-.15Z"/>
      <path class="cls-12" d="M115.49,48.34c-.28-.31-.26-.71,.13-.73,.38-.02,.77,.29,1.16,.46-.43,.09-.86,.18-1.29,.27Z"/>
      <path class="cls-1" d="M127.08,190.54c.25,.26,.5,.52,.75,.78-.25-.26-.5-.52-.75-.78Z"/>
      <path class="cls-13" d="M187.1,124.39c-2.1,1.61-3.89,3.15-5.86,4.4-1.22,.77-2.77,1.52-4.16,.33-1.24-1.06-1.01-2.74-.37-3.81,2.76-4.58,3.73-8.66-1.7-12.13-1.03-.66-1.59-2.26-.89-3.73,.76-1.59,2.34-1.62,3.57-1.27,5.25,1.49,8.27-.37,9.31-5.66,.07-.34,.35-.65,.57-.96,1.31-1.8,2.52-4.08,5.18-3.56,2.67,.52,2.85,3.24,2.76,5.14-.27,6.16,.34,11.38,7.94,12.55,1.18,.18,2.44,1.39,2.21,3.08-.21,1.56-1.61,1.72-2.74,2.15-.58,.22-1.18,.57-1.77,.57-4.41,0-6.18,2.05-5.38,6.44,.22,1.22-.2,2.59-1.46,3.19-1.49,.72-2.3-.57-3.08-1.47-1.38-1.59-2.62-3.31-4.16-5.28Z"/>
      <path class="cls-13" d="M232.27,149.9c-.42-2.38-1.04-4.45-1.08-6.53-.06-2.85,1.7-3.72,4.18-2.33,2.27,1.27,3.64,3.4,4.93,5.51,.97,1.59,1.91,2.35,3.89,1.61,1.36-.51,2.96-.68,4.41-.55,1.51,.13,3.48-.06,4.14,1.87,.64,1.87-.71,3.07-1.96,4.09-1.42,1.16-3,2.12-4.54,3.19,.87,2.4,4.63,4.35,2.41,6.82-2.2,2.45-5.31-.43-8.09-.66-1.01,1.37-.9,3.07-1.44,4.57-.38,1.06-.89,2.16-2.22,2.25-1.43,.09-2.29-.79-2.82-2.03-.88-2.09-1.5-4.29-1.39-6.53,.12-2.45-.87-3.71-3.18-4.16-.36-.07-.72-.22-1.05-.39-1.53-.77-3.53-1.31-3.33-3.5,.19-2.03,2.22-2.11,3.69-2.6,1.05-.35,2.18-.42,3.43-.64Z"/>
      <path class="cls-13" d="M138.2,164.38c-1.2,2-2.07,3.97-3.41,5.54-1.97,2.29-4.06,1.65-4.75-1.32-.25-1.07-.49-2.27-.23-3.29,.72-2.92,.22-4.96-2.85-6.2-1.32-.53-2.49-1.87-1.98-3.62,.5-1.7,2.09-2.26,3.56-2.15,2.83,.22,3.37-1.14,3.18-3.54-.08-.95,.26-1.96,.54-2.91,.36-1.24,1.01-2.35,2.45-2.5,1.24-.13,2.43,.6,2.69,1.64,1.44,5.62,4.98,7.41,10.51,6.53,1.38-.22,2.99,.83,3.35,2.49,.35,1.64-1.02,2.52-2.23,3.08-3.19,1.46-5.16,3.24-2.98,6.99,.51,.88,.3,2.04-.6,2.7-.9,.65-1.95,.4-2.8-.18-1.43-.97-2.8-2.03-4.43-3.24Z"/>
      <path class="cls-11" d="M187.83,157.33c-2.29-.21-4.47-.67-5.74-2.87-.52-.9-.77-1.96,.28-2.65,.88-.57,1.55-.05,2.2,.7,2.19,2.5,4.37,2.42,6.4-.25,.52-.68,.98-1.59,2.06-.99,1.15,.63,.96,1.74,.56,2.63-1.09,2.46-3.3,3.18-5.76,3.42Z"/>
      <path class="cls-3" d="M172.04,154.33c.46,1.59,2.61,3.09,.21,4.82-1.74,1.25-6.34,.91-7.67-.58-1.12-1.25-.57-2.23,.44-3.17,1.82-1.68,4.09-1.48,6.3-1.52l-.09-.04c.28,.27,.57,.53,.85,.8l-.14-.14,.1-.17Z"/>
      <path class="cls-7" d="M171.33,153.88c-.74-1.04-1.1-2.17-.98-3.47,.18-1.9,1.35-2.93,3.08-3.19,1.95-.29,3.39,.58,3.94,2.56,.5,1.79-.2,3.14-1.73,4.08-1.12,.68-2.35,.7-3.6,.48,0,0-.1,.17-.1,.17,0,0,.14,.14,.14,.13,.1-.68-.42-.69-.85-.8l.09,.04Z"/>
      <path class="cls-7" d="M201.89,153.54c-.6-.07-1.2-.14-1.8-.21-1.99-.25-3.19-1.38-3.35-3.35-.12-1.46,.58-2.67,2.03-3.21,1.68-.64,3.24-.25,4.38,1.08,1.32,1.54,1.13,3.18-.19,4.68-.32,.37-.72,.67-1.08,1h0Z"/>
      <path class="cls-3" d="M201.88,153.53c1.25,.86,2.65,.2,3.97,.37,1.87,.24,3.66,.86,3.43,3.04-.26,2.5-2.45,2.97-4.49,2.78-1.86-.18-3.79-.79-3.56-3.34,.09-.96,.43-1.89,.65-2.84,0,0,0-.01,0-.01Z"/>
      <path class="cls-10" d="M171.33,221.67c.64,2.16,3.56,4.14,1.52,5.81-2.52,2.06-4.83-1.55-7.8-1.79-.7,1.53-1.33,3.26-2.25,4.81-1.36,2.31-2.83,2.25-4.12-.03-.12-.22-.28-.46-.28-.69,0-4.69-.84-8.43-6.39-10.03-2.24-.65-.74-3.3,1.28-3.43,4.09-.26,5.06-1.97,3.82-5.69-.43-1.28-.1-2.83,1.32-3.59,1.72-.92,2.87,.33,3.84,1.42,1.07,1.2,2.05,2.52,2.83,3.92,.88,1.58,1.94,2.34,3.84,2.29,2.2-.06,4.98-.25,5.88,2.17,.97,2.59-2.29,3.11-3.5,4.83Z"/>
      <path class="cls-10" d="M226.4,214.26c-.23,.12-.47,.18-.61,.33-1.17,1.21-2.25,3.33-4.12,2.34-2.18-1.16-.86-3.33-.18-4.95,.65-1.53,.54-2.5-.94-3.38-.85-.5-1.63-1.34-1.19-2.47,.36-.93,1.36-1.11,2.22-1.01,2.59,.31,4.22-.54,4.88-3.23,.3-1.21,1.3-2.29,2.72-2.11,1.69,.22,2.08,1.69,2.01,3.1-.12,2.56,.16,4.65,2.7,6.24,1.68,1.06,.69,2.4-.99,2.8-1.35,.32-2.22,.74-2.11,2.41,.09,1.28,.38,3.1-1.41,3.37-1.46,.22-1.75-1.49-2.34-2.53-.18-.32-.43-.6-.65-.91Z"/>
      <path class="cls-10" d="M182.88,237.39c-.98-.16-1.33-.67-1.55-1.26-.21-.57-.17-1.6-.5-1.72-3.97-1.46-3.2-2.31-.21-4.58,1.88-1.43,2.3-2.46,3.25,.23,.34,.97,1.08,.84,1.76,.97,.66,.13,1.51,.73,1.27,1.08-1.25,1.87-2.72,3.6-4.02,5.28Z"/>
      <path class="cls-10" d="M216.54,194.23c.77,2.19,2.26,3.16,4.45,3.53-1.07,2.19-4.1,1.71-4.11,4.65-1.8-1.56-2.36-3.65-4.75-3.8,1.84-1.39,3.38-2.4,4.41-4.39Z"/>
      <path class="cls-10" d="M150.82,206.97c-.22,1.37-1.03,1.98-2.09,1.99-1.23,.01-2.2-.6-2.13-2.02,.06-1.17,.91-1.83,1.96-1.87,1.32-.06,1.87,.99,2.25,1.9Z"/>
      <path class="cls-2" d="M206.27,279.58c.44-6.34,.73-12.68,4.55-18.05,1.67,6.87-1.29,12.52-4.55,18.05Z"/>
      <path class="cls-2" d="M264.86,278.67c-.07,3.25-.72,5.76-1.49,8.23-.37,1.19-.97,2.56-2.49,2.31-1.92-.32-1.49-2.05-1.38-3.34,.28-3.17,1.74-5.58,5.35-7.2Z"/>
      <path class="cls-2" d="M146.71,278.51c-.37,3.69-.77,6.5-1.91,9.14-.39,.9-1.04,1.81-2.25,1.59-1.28-.23-1.35-1.3-1.37-2.32-.05-3.68,1.51-6.35,5.53-8.41Z"/>
      <path class="cls-12" d="M181.27,263.16c1.69,4.15,.39,7.84-3.46,10.49,.37-3.79,.87-7.15,3.46-10.49Z"/>
      <path class="cls-12" d="M190.05,284.81c-.17-2.79,.48-4.77,2.83-5.74,1.11-.46,2.1,.4,2.06,1.46-.09,2.72-2.17,3.55-4.89,4.28Z"/>
      <path class="cls-2" d="M217.64,284.36c-.11-2.56,.51-4.34,2.68-5.1,.92-.33,1.78,.34,1.72,1.38-.15,2.42-1.87,3.26-4.4,3.72Z"/>
      <path class="cls-2" d="M157.28,288.76c.92-1.44,1.83-2.88,2.92-4.59,1.2,1.28,2.11,2.32,2.2,4.1-1.31,.75-3.16,.2-4.3,1.45-.27-.32-.55-.64-.83-.96Z"/>
      <path class="cls-2" d="M164.7,326.89c.96-4.24,1.15-8.73,4.33-13.31,1.72,5.71-.76,9.41-3.11,13.14-.41,.06-.82,.11-1.22,.17Z"/>
      <path class="cls-12" d="M234.96,350.54c-.16,3.35-1.14,5.59-2.32,7.74-.47,.85-1.09,1.87-2.29,1.34-1.19-.52-.9-1.67-.59-2.58,.86-2.51,2.49-4.45,5.2-6.5Z"/>
      <path class="cls-2" d="M182.46,337.5c-.11-2.56,.51-4.34,2.68-5.1,.92-.33,1.78,.34,1.72,1.38-.15,2.42-1.87,3.26-4.4,3.72Z"/>
      <path class="cls-12" d="M167.49,331.27c-1.06,1.75-2.12,3.5-3.37,5.55-1.01-3.19,.66-4.82,2.58-6.34,.26,.26,.52,.52,.78,.78Z"/>
      <path class="cls-12" d="M164.7,326.89c.41-.06,.82-.11,1.22-.17-.33,.41-.64,1.15-.98,1.16-.58,.02-.45-.57-.24-1Z"/>
      <path class="cls-2" d="M235.36,344.51c.24-.33,.48-.66,.72-.99-.01,.53-.02,1.06-.03,1.59-.23-.2-.46-.4-.69-.6Z"/>
      <path class="cls-2" d="M236.05,345.11c-.23,.57-.63,1.42-1.2,1.01-.99-.69,.12-1.13,.52-1.61,.23,.2,.46,.4,.69,.6Z"/>
      <path class="cls-2" d="M167.49,331.27l-.78-.78c.08-.18,.21-.31,.39-.39,.21,.22,.42,.45,.63,.67,0,.2-.08,.37-.23,.51Z"/>
      <path class="cls-2" d="M168.52,330.04c-.26,.24-.53,.48-.79,.72-.21-.22-.42-.45-.63-.67,.21-.24,.41-.49,.62-.73,.27,.23,.54,.45,.8,.68Z"/>
      <path class="cls-2" d="M113.24,292.32c-1.7-.68-2.23-2.18-2.45-3.6-.99-6.3-.53-12.44,2.89-18.02,2.15-3.52,5.25-5.56,9.53-5.53,2.96,.02,5.57,.75,6.42,3.95,.88,3.32-.11,6.16-2.99,8.17-1.12,.78-2.41,1.28-3.9,1.23-.69-2.29,.42-4.4,.59-6.59,.12-1.54,.27-3.16-1.85-3.4-1.7-.19-2.9,.63-3.32,2.32-.33,1.32-.56,2.68-.79,4.02-.33,1.87-.01,4.04-3.08,4.03-1.28,0-1.97,1.96-.97,2.47,4.6,2.35,1.29,5.74,1.38,8.63,.02,.74-.2,1.76-1.45,2.31Z"/>
      <path class="cls-2" d="M140.46,35.24c1.99,1.97,3.44,3.43,4.55,5.46-1.69,.55-3.21,1.04-5.01,1.63-.37-2.29-.04-4.29,.47-7.09Z"/>
      <path class="cls-2" d="M157.46,30.09c.82-.43,1.26-.38,.84,.69-.28-.23-.56-.46-.84-.69Z"/>
      <path class="cls-2" d="M328.65,126.03c-1.31-1.74-2.02-3.13-2.29-4.97h6.79c-1.67,1.85-2.97,3.28-4.5,4.97Z"/>
      <path class="cls-2" d="M326.98,132.91c-.14,.4,.08,1.17-.82,.8-.1-.65,.06-1.03,.82-.8Z"/>
      <path class="cls-2" d="M73.38,88.75c-3.15-.05-5.61-2.68-5.46-5.87,.14-3.18,2.74-5.53,5.95-5.4,3,.13,5.34,2.61,5.3,5.64-.04,3.12-2.66,5.67-5.79,5.62Z"/>
      <path class="cls-2" d="M220.76,30.26c2.94,1.33,7.22,.13,6.8,4.66-.34,3.71-3.58,2.89-5.83,2.08-4.35-1.56-.24-4.19-.97-6.74Z"/>
      <path class="cls-2" d="M109.84,57.29c-.09,3.13-2.63,5.5-5.83,5.45-3.28-.06-5.59-2.46-5.48-5.7,.11-3.1,2.74-5.64,5.79-5.57,3.09,.07,5.6,2.72,5.52,5.82Z"/>
      <path class="cls-2" d="M293.79,75.18c1.63-1.67,2.92-3,4.3-4.43,1.81,1.91,4.41,2.98,4.13,6-.11,1.2-1,2.09-2.16,2.29-3.03,.52-4.2-2.02-6.27-3.86Z"/>
      <path class="cls-2" d="M207.08,29.37c.99,2.11,1.62,3.93,1.7,5.98-1.6,.78-3.16,.17-4.94,.04,.44-2.31,1.75-3.99,3.24-6.02Z"/>
      <path class="cls-1" d="M171.23,153.83c.43,.11,.95,.12,.85,.8-.28-.27-.57-.53-.85-.8Z"/>
    </g>
  </g>
</svg>