<?xml version="1.0" encoding="UTF-8"?>
<svg id="Capa_1" data-name="Capa 1" xmlns="http://www.w3.org/2000/svg" viewBox="0 0 1150.41 129.84">
  <path d="M559.73,1.88c-6.9,2.4-11.9,6.5-15.9,13.1-10.3,16.9-4,37.2,14.1,45.6,7.2,3.3,18.1,3.3,25.2,0,12.1-5.6,18.7-15.7,18.8-28.6,.1-6.6-.3-8.4-3.2-14.3-7.2-14.7-23.4-21.2-39-15.8Z"/>
  <path d="M441.53,30.98c-17.4,3.7-40.4,14.1-68,30.6-16.7,9.9-28,15.8-35.9,18.6-24.3,8.5-47.6,8.9-69.5,1.2-8-2.8-20.2-9.1-26-13.6-3.2-2.5-2.7-1.7,2.4,3.6,15.7,16.3,32.2,24.2,53,25.3,12.9,.6,22.8-.7,35.7-4.8s22.8-9.2,38.7-19.8c51.1-34.1,92.7-43.6,130.1-29.6,5.6,2.1-3.9-3.3-11.8-6.7-16.1-7-31.6-8.5-48.7-4.8Z"/>
  <path d="M675.93,30.48c-7.3,1.6-17.9,5.7-25.1,9.7-5.5,3.1-7.4,4.9-2.4,2.4,7.5-3.9,19.3-6,33.6-6,31.1,0,60.6,11.1,98.8,37.1,13.4,9.1,22.2,13.6,35.2,17.8,34.6,11.4,64.1,5.1,89.3-18.9,6.3-5.9,7.2-8.3,1.5-4-6.7,5.1-23.3,13-32.9,15.4-11.8,3.1-28.8,3.7-41,1.5-18-3.2-31.1-8.7-55.4-23.5-16.3-9.9-44.6-23.9-55.2-27.4-16.7-5.4-33.5-6.9-46.4-4.1Z"/>
  <path d="M520.53,41.58c12.7,7.8,25.4,19.2,38.4,34.4,5.1,6,1.9,.5-4.4-7.5-9.4-11.9-22.1-22.5-33.7-28.4-8.8-4.4-8.9-3.8-.3,1.5Z"/>
  <path d="M624.83,40.88c-4,2.1-9.8,5.8-12.8,8.1-7.4,5.7-18.9,18.1-24.3,26.1l-4.4,6.4,4.3-5c14.2-16.4,25.9-26.9,38.9-35,9-5.5,8.1-5.8-1.7-.6Z"/>
  <path d="M453.03,48.68c-21.1,4.4-34.5,11.2-66.9,33.7-19.4,13.4-39.2,22.2-59.6,26.2l-9.5,1.9,13.5,.3c27.6,.7,38.5-3.4,79.6-30,34.7-22.5,50-29.5,69.4-31.8,5.2-.7,9.7-1.4,9.9-1.6,1.2-1.1-30.2-.1-36.4,1.3Z"/>
  <path d="M660.53,47.28c.3,.3,4.8,1,10,1.7,17.3,2,33.5,8.8,57.3,23.9,7,4.5,18.4,11.7,25.5,16.2,28.9,18.4,40.9,22.3,66.2,21.7l13.5-.3-9.5-1.9c-18.6-3.7-38.9-12.3-56-23.8-5.2-3.6-14.6-9.9-20.8-14.1-13.7-9.3-26.2-15.5-40.2-19.8-9.8-3-11.8-3.2-28.5-3.6-9.9-.3-17.8-.3-17.5,0Z"/>
  <path d="M59.53,53.98c-26.5,2.9-47.3,21.6-56.3,50.5-1.3,4.4-2.7,9.8-3.1,12-.4,3,.1,2.2,2.3-3.5,4.7-12.5,11.6-22.2,21-29.5,22.1-16.9,51.2-19.9,105.1-10.9,33.9,5.7,50.8,5.7,68.1,0,7.9-2.6,21.3-8.5,20.8-9.1-.2-.2-4,.6-8.4,1.7-6.9,1.8-11.2,2.1-30.5,2.1-28.2,.1-37.2-1.1-85-11.1-11.6-2.5-24-3.2-34-2.2Z"/>
  <path d="M1069.53,53.98c-4.1,.4-12.7,1.9-19,3.4-34.9,7.8-52.1,10-78.5,10-19.8-.1-27.7-.9-38.3-4-.9-.3,1,.9,4.3,2.7,8,4.3,21,8.6,29.8,10,10.1,1.6,31.5,.5,47.7-2.5,36.5-6.6,65.8-7.7,84.5-3.1,3.3,.8,10.2,3.6,15.4,6.1,15.4,7.6,26.8,20.5,32.6,37.1,3,8.4,3.2,6.4,.4-4.2-10.4-39.9-38.7-59.7-78.9-55.5Z"/>
  <path d="M493.03,59.58c-23.2,3.4-44.3,12.4-70.8,30.1-16.3,10.9-29.3,17.7-42.2,22.1-15.9,5.4-24.2,6.7-43.5,6.7-17,0-17.3,0-11,1.3,9,1.8,39.6,2,49,.4,19.5-3.5,33.3-9,52-20.7,29.4-18.5,54.2-27.2,80.5-28.2,19.3-.7,34,2.3,47.5,9.9,2.9,1.7,2.5,1-2.5-3.9-11.4-11-26.9-17.2-45-17.8-6-.2-12.3-.1-14,.1Z"/>
  <path d="M632.03,60.48c-13.7,2.6-24.5,7.9-33.8,16.7-3.4,3.3-5.7,5.8-5.2,5.6,.6-.2,4.4-2,8.5-4.1,10.6-5.2,17.7-6.8,32.2-7.4,29.5-1.3,57.3,7.6,91.9,29.2,17.3,10.9,31,16.2,49.9,19.6,8.8,1.6,33.5,1.8,43.5,.4,6.9-.9,6.8-.9-8.5-1.6-31.1-1.3-50.1-8-81.8-28.8-39.4-25.8-68.9-34.8-96.7-29.6Z"/>
  <path d="M232.23,63.18c.3,1.8,1.7,6.1,3.1,9.6,6.9,17.5,21.3,31.8,41.6,41.2,10.7,5,14.7,6,7.1,1.8-12.2-6.7-21.6-14.6-31.4-26.3-6.9-8.2-15.5-20.4-18.5-26.3-.9-1.7-1.9-3.2-2.1-3.2s-.2,1.5,.2,3.2Z"/>
  <path d="M913.43,67.88c-13.2,21.7-29.6,38.4-46.3,47.3-10.7,5.7-5.9,4.5,6.9-1.6,18.5-9,30.8-20.3,38.3-35.2,2.9-5.7,6.8-17.2,6-17.9-.1-.1-2.4,3.2-4.9,7.4Z"/>
  <path d="M207.13,80.38c-19,7.1-22.8,32.1-6.8,44.3,5.3,4,11.2,5.7,17.8,5,6.3-.6,10.7-2.8,15.7-7.5,4.1-4,7.7-12.2,7.7-17.7,0-8.6-6.6-18.8-15-23-4.6-2.4-14.5-2.9-19.4-1.1Z"/>
  <path d="M493.73,79.98c-13.6,1.9-28.7,8.2-45.7,19-11.5,7.3-28,15.7-37,18.7l-7,2.3,6.5-.6c15.5-1.4,37.1-7,65.6-16.7,23.1-8,29.9-9.1,52.2-8.4,17.9,.6,18.3,.5,16.7-1.3-2.6-2.9-16.3-9.6-23-11.4-7.8-2-20.4-2.7-28.3-1.6Z"/>
  <path d="M636.53,79.98c-10.2,1.3-23.9,6.9-30.5,12.4l-3,2.5,17.6-.6c22.5-.8,29.6,.3,51.9,7.9,30.5,10.3,50.9,15.6,67.5,17.3l6,.6-7.3-2.6c-9.7-3.4-23.4-10.3-35.9-18.2-19-11.9-32.6-17.4-47.6-19.3-8.9-1.1-10.4-1.1-18.7,0Z"/>
  <path d="M927.53,79.88c-7.9,2.6-15.2,9.5-17,16-5.1,18.5,8.4,35.7,26.6,33.8,9.2-.9,17.5-7,21.2-15.6,2.1-4.9,2-15.7-.3-20.1-2.4-4.9-7.3-9.8-12-12.2-4.3-2.2-14.4-3.3-18.5-1.9Z"/>
  <path d="M115.53,86.38c-5.2,.7-9.7,1.4-10,1.5s3.1,1.5,7.5,3.2c12.1,4.5,25.5,11.3,30.3,15.4,2.4,2.1,4.4,3.6,4.6,3.4,.1-.2,2.4-3.7,5.1-7.7,4.5-7,11.2-13.2,14.2-13.2,2.4,0,1.4-1.7-1.4-2.5-5.4-1.3-40.6-1.4-50.3-.1Z"/>
  <path d="M992.03,85.48c-.5,.2-3.1,.6-5.7,1-2.7,.3-4.8,1-4.8,1.6,0,.5,.6,.9,1.3,.9,3.1,0,9.8,6.3,14.7,13.7l5.2,7.8,3.8-3.6c4.2-4,18.2-11.3,30.5-15.8,4.5-1.6,7.4-3.1,6.5-3.4-5.2-1.9-47.3-3.6-51.5-2.2Z"/>
  <path d="M63.53,99.08c-4.1,1.1-10.6,3.8-14.5,6.1-3.8,2.3-11.7,6.6-17.5,9.6-10.4,5.4-10.5,5.4-5.5,4.8,8.2-1.2,17.2-3.6,31.5-8.4,13-4.5,14.1-4.6,28-5.2l14.4-.5-5.9-3.1c-6.2-3.3-14.2-5.4-19.8-5.3-1.8,0-6.6,.9-10.7,2Z"/>
  <path d="M1072.03,97.58c-6.3,1.5-12.2,3.8-15.3,5.9l-3.4,2.3,14.4,.4c13.9,.4,14.7,.5,27.8,5,7.4,2.5,15.5,5.1,18,5.7,5.6,1.4,19.4,4,19.7,3.7,.2-.1-2.3-1.3-5.5-2.6-3.1-1.2-10.9-5.3-17.2-9.1-6.3-3.7-14.2-7.7-17.6-8.8-6.2-2-17.3-3.4-20.9-2.5Z"/>
  <path d="M827.83,118.68c.9,.2,2.3,.2,3,0,.6-.3-.1-.5-1.8-.5-1.6,0-2.2,.2-1.2,.5Z"/>
</svg>