<?xml version="1.0" encoding="UTF-8"?>
<svg id="Capa_1" data-name="Capa 1" xmlns="http://www.w3.org/2000/svg" viewBox="0 0 1150.49 129.61">
  <path d="M207.19,1.12c-9.7,3.6-16.9,13.9-16.9,24.1,0,10.9,8.3,21.8,18.6,24.6,5.2,1.4,13.3,.6,17.8-1.6,8.3-4.2,14.9-14.4,14.9-23s-6.6-18.8-15-23c-4.6-2.4-14.5-2.9-19.4-1.1Z"/>
  <path d="M927.59,.62c-7.9,2.6-15.2,9.5-17,16-1.3,4.6-1.3,12.6,0,17.2,1.3,4.7,7.2,11.4,12.4,14.2,5.8,3,17.4,3.1,23.2,0,4.8-2.6,10-8.2,12.2-13.2,1.9-4.5,2-13.4,.3-18.5-1.7-4.9-7.3-11.2-12.5-13.8-4.4-2.2-14.5-3.3-18.6-1.9Z"/>
  <path d="M333.09,8.82c-10.7,1.4-10.1,1.7,3.6,1.8,30.3,.2,53.7,8.2,84.5,28.7,22.8,15.2,39.3,23.1,58.3,28.1,13.7,3.6,34.2,3.8,45.1,.4,10.9-3.3,20.1-8.5,27.2-15.3,3.5-3.2,5.9-5.8,5.3-5.6-.5,.2-4.4,2-8.5,4.1-12.3,6-18.2,7.2-37,7.2-12.6,0-18.4-.4-24.5-1.9-19.6-4.5-41-13.8-61.2-26.5-6.2-3.9-13.4-8.1-16-9.4-6.4-3.2-22-8.3-31.3-10.2-9.2-1.9-35.9-2.7-45.5-1.4Z"/>
  <path d="M783.09,8.32c-23.9,3.7-40.4,9.6-56.8,20.4-18.3,12.1-40.2,21.9-59.5,26.7-9.5,2.4-12.7,2.7-27.7,2.8-14.9,0-18-.3-25-2.4-4.4-1.2-10.9-3.8-14.4-5.7-3.6-1.8-6.6-3.2-6.8-3-1.1,1.1,13,12,20,15.5,11.8,5.9,18.9,7.5,33.7,7.5,25.6,0,49.4-8.8,81.6-30.2,8.2-5.5,19-12,23.9-14.5,19.4-9.7,39.9-14.6,61.9-14.8,10.2-.1,12.2-.3,9.1-1-4.5-1-35.4-2-40-1.3Z"/>
  <path d="M25.09,11.52c3.9,1.6,11.5,5.5,17,8.8,12.4,7.4,18.2,9.9,26.6,11.4,8.5,1.5,17.2,0,25.4-4.3l5.9-3.2-14.4-.6c-14-.5-15-.7-28.5-5.3-12.1-4.1-34-9.7-37.8-9.6-.6,.1,2,1.3,5.8,2.8Z"/>
  <path d="M1120.59,11.22c-5.8,1.2-17,4.5-25,7.1l-14.5,4.9h-13.7c-7.6,0-13.8,.3-13.8,.6,0,1.3,10,5.9,16,7.5,11.9,3,22.8,.2,41.3-10.8,5.4-3.3,13-7.2,17-8.8,8.6-3.5,6.8-3.6-7.3-.5Z"/>
  <path d="M.19,13.22c1.2,7.4,6.4,21.9,10.6,29.5,5.2,9.4,16.9,21.3,25.3,25.7,15.6,8.2,36.1,9.9,59,4.9,43.5-9.6,54.5-11,82.5-11,17.5,0,24.1,.4,29.5,1.7,3.9,.9,8.1,1.9,9.5,2.2,3.7,.9-6.2-4-14.9-7.4-19.5-7.5-37.9-7.9-73.6-1.6-20.2,3.6-21.9,3.8-45.5,3.9-27.2,.1-31.9-.6-45.5-6.9C20.39,46.52,8.89,33.92,2.19,16.02,.09,10.52-.31,10.02,.19,13.22Z"/>
  <path d="M411.39,12.22c9,2.9,23.9,10.4,36.8,18.5,15.7,9.9,24.9,14.1,38.4,17.5,9.2,2.4,27.4,2.2,36.2-.4,7.5-2.2,19.8-8.3,22.4-11.2,1.7-1.8,1.4-1.9-15.2-1.2-22.9,.8-29-.2-56.3-9.3-12.3-4.1-28.7-9-36.5-10.9-23.1-5.5-39.2-7.4-25.8-3Z"/>
  <path d="M736.59,10.42c-20.4,3.5-38.9,8.4-62.5,16.6-23.7,8.2-23.5,8.2-48.3,8.2-24.6-.1-24.1-.3-13.7,6,10.1,6,20.1,8.6,33.5,8.6,19.2,.1,34.4-5.1,57.2-19.4,13.1-8.2,27.3-15.4,36.3-18.3,5.7-1.9,6.4-2.3,3.5-2.2-1.9,0-4.6,.3-6,.5Z"/>
  <path d="M1148.29,15.72c-6.4,20.2-24.1,36.4-47.2,43.1-7.5,2.2-9.6,2.4-32,2.3-24.4-.1-30-.6-58-5.9-11.1-2.1-34.4-3-43-1.6-3.8,.6-10.4,2.2-14.5,3.5-7.5,2.5-21.4,8.6-20.8,9.1,.2,.2,3.9-.5,8.3-1.6,10.5-2.5,34.1-3.5,50.7-2,16.1,1.4,33.7,4.2,54.8,8.7,21,4.5,31.8,5.7,42.3,4.5,31.2-3.6,51.9-23.5,60.2-57.9,2.2-8.9,1.7-10.1-.8-2.2Z"/>
  <path d="M280.39,14.12c-21.2,9.2-34.5,21.1-42.8,38.1-3.5,7.1-6.5,16.4-5.6,17.3,.2,.1,1.8-2.3,3.6-5.5,11.5-20.6,30-39.9,47-49.2,9.1-4.9,8.2-5.3-2.2-.7Z"/>
  <path d="M321.39,11.42c.7,.3,1.6,.2,1.9-.1,.4-.3-.2-.6-1.3-.5-1.1,0-1.4,.3-.6,.6Z"/>
  <path d="M828.39,11.42c.7,.3,1.6,.2,1.9-.1,.4-.3-.2-.6-1.3-.5-1.1,0-1.4,.3-.6,.6Z"/>
  <path d="M867.29,14.62c16.9,8.9,31.3,23.6,45.8,46.6,4.6,7.3,5.6,8.3,5,5.5-4.5-21.5-19.7-39-44.6-51-12.2-5.9-16.6-6.7-6.2-1.1Z"/>
  <path d="M320.59,19.92c14.8,3,19.6,4.2,27.6,7.2,16.4,6.1,27.9,12.6,48.4,27.3,12.2,8.7,28.2,17.6,39.6,21.9,12.1,4.5,23.4,6.4,39.3,6.4,7.9,0,14.2-.2,14-.5-.3-.2-4.6-.9-9.7-1.5-19.9-2.2-35-9.2-71.8-33.3-25.3-16.5-40.1-24-53.6-27.2-4.3-1-11.3-1.4-22.3-1.4-12.5,.1-15,.3-11.5,1.1Z"/>
  <path d="M796.09,20.22c-11.9,2.6-25.7,9.2-44,21.1-39.6,25.5-48.6,30.5-63.7,35.5-4.9,1.6-13.1,3.4-18.1,3.9-5,.6-9.3,1.3-9.6,1.5-.2,.3,6.1,.5,14,.5,29.8,0,50.2-7.7,83.4-31.4,25.1-17.9,42-25.3,71.5-31.4,3.5-.8,1-1-11.5-1-9.6,0-18.4,.5-22,1.3Z"/>
  <path d="M997.59,27.02c-4.9,7.4-11.6,13.7-14.7,13.7-2.4,0-1.4,1.8,1.5,2.4,9.5,2.2,52.3,1.4,58.8-1.1,1-.3-3.3-2.5-10.6-5.4-13.9-5.5-21.5-9.7-26.4-14.3l-3.4-3.2-5.2,7.9Z"/>
  <path d="M143.09,23.32c-4.5,4-17.9,10.8-29.9,15.2-5,1.8-7.3,3.1-6.3,3.5,6.6,2.5,49.4,3.3,59,1.1,3.3-.8,3.5-2,.3-2.8-3.3-.8-10.9-8.5-14.8-15.2-1.8-3-3.5-5.4-3.8-5.4-.3,.1-2.3,1.7-4.5,3.6Z"/>
  <path d="M286.59,34.12c-17.3,3.9-35.2,14.5-44.9,26.7l-3.5,4.2,5.5-4.1c7.3-5.5,22.3-12.5,32.9-15.3,12-3.3,35.5-3.3,48-.2,13.6,3.4,26.5,9.3,45.1,20.4,60.5,36.1,89.9,42.4,124.3,26.4,9.5-4.4,13.1-7.3,5.1-4.1-9.4,3.7-24.3,5.9-35.5,5.2-28.7-1.8-56.7-12.6-89.2-34.3-22.4-14.9-37.5-21.7-55.3-24.9-9.5-1.7-24.9-1.7-32.5,0Z"/>
  <path d="M828.59,34.72c-17.3,3.7-30.5,9.7-50.4,22.9-35.1,23.4-61.8,33.8-91.2,35.8-10.9,.7-26.8-1.7-35.9-5.3-7.9-3.2-5.9-1.5,4,3.4,15.8,7.9,31.5,10.6,47.6,8.3,17.7-2.5,44.1-13.8,73.9-31.6,23.4-14.1,33.8-18.8,50.5-23.1,9.9-2.6,35.1-2.6,45,0,10.2,2.6,23,8.2,31.3,13.6,3.9,2.7,7.2,4.4,7.2,4,0-1.5-13.5-13.3-20-17.5-18.2-11.6-39.8-15.3-62-10.5Z"/>
  <path d="M556.09,56.82c-11,13.1-27.3,27.2-37.8,32.6-2.7,1.3-4.7,2.7-4.4,2.9,.7,.7,10.2-4.2,17-8.8,10.3-7,25.1-22.5,31.1-32.6,1.6-2.8-.3-.8-5.9,5.9Z"/>
  <path d="M586.09,52.22c7.5,12.8,24.2,28.6,38.5,36.4,10.1,5.5,11.2,5.2,2-.5-12.6-7.7-27.2-20.9-38.9-34.9-2.5-3-2.9-3.3-1.6-1Z"/>
  <path d="M561.59,67.62c-8.1,2.6-15.8,8.9-19.4,15.8-2.8,5.5-4,14.3-2.7,20.3,5.1,24.5,32.9,34,52.3,18,2.1-1.8,5.1-5.9,7-9.8,7.9-16,1.8-34-14.4-42.3-4.6-2.4-18-3.6-22.8-2Z"/>
</svg>