<?xml version="1.0" encoding="UTF-8"?>
<svg id="Flat" xmlns="http://www.w3.org/2000/svg" viewBox="0 0 211.26 218.19">
  <defs>
    <style>
      .cls-1 {
        opacity: .2;
      }

      .cls-1, .cls-2 {
        isolation: isolate;
      }

      .cls-2 {
        fill: #fff;
        opacity: .9;
      }
    </style>
  </defs>
  <path class="cls-1" d="M211.26,109.09c0,13.12-18.1,23.03-23.03,35.34-4.76,11.88,1.44,32.15-7.91,41.8-9.35,9.65-28.97,3.25-40.47,8.17-11.92,5.09-21.52,23.79-34.22,23.79s-22.3-18.69-34.22-23.79c-11.5-4.91-31.13,1.49-40.47-8.17s-3.15-29.92-7.91-41.8C18.1,132.12,0,122.21,0,109.09s18.1-23.03,23.03-35.34c4.76-11.88-1.44-32.15,7.91-41.8,9.35-9.65,28.97-3.25,40.47-8.17C83.33,18.69,92.93,0,105.63,0s22.3,18.69,34.22,23.79c11.5,4.91,31.13-1.49,40.47,8.17,9.35,9.65,3.15,29.92,7.91,41.8,4.93,12.31,23.03,22.22,23.03,35.34h0Z"/>
  <path class="cls-2" d="M191.95,122.7c-4.8,4.82-9.76,9.81-12.38,15.93-2.52,5.88-2.63,12.6-2.73,19.11-.11,6.8-.22,13.82-3.32,16.81s-10.39,3.1-17.44,3.2c-6.75,.1-13.72,.2-19.82,2.63-6.35,2.53-11.52,7.32-16.52,11.94-4.96,4.59-10.1,9.34-14.11,9.34s-9.14-4.75-14.11-9.34c-5-4.63-10.17-9.41-16.52-11.94-6.09-2.43-13.07-2.53-19.81-2.63-7.05-.1-14.33-.21-17.44-3.2h0c-3.1-2.99-3.21-10.02-3.32-16.81-.1-6.5-.21-13.23-2.73-19.11-2.63-6.12-7.59-11.11-12.38-15.93-4.76-4.79-9.69-9.74-9.69-13.61s4.92-8.82,9.69-13.61c4.8-4.82,9.76-9.81,12.38-15.93,2.52-5.88,2.63-12.6,2.73-19.11,.11-6.8,.22-13.82,3.32-16.81,3.1-2.99,10.39-3.1,17.44-3.2,6.75-.1,13.72-.2,19.82-2.63,6.35-2.53,11.52-7.32,16.52-11.94,4.96-4.59,10.1-9.34,14.11-9.34s9.14,4.75,14.11,9.34c5,4.63,10.17,9.41,16.52,11.94,6.09,2.43,13.07,2.53,19.81,2.63,7.05,.1,14.33,.21,17.44,3.2,3.1,2.99,3.21,10.02,3.32,16.81,.1,6.5,.21,13.23,2.73,19.11,2.63,6.12,7.59,11.11,12.38,15.93,4.76,4.79,9.69,9.74,9.69,13.61s-4.92,8.82-9.69,13.61Z"/>
</svg>