<?xml version="1.0" encoding="UTF-8"?>
<svg id="Capa_1" data-name="Capa 1" xmlns="http://www.w3.org/2000/svg" viewBox="0 0 1150.2 41.97">
  <defs>
    <style>
      .cls-1 {
        fill: #fefefe;
      }
    </style>
  </defs>
  <path class="cls-1" d="M.04,35.08C.04,24.01,.07,12.93,0,1.86,0,.37,.34-.21,1.84,.07c.29,.05,.6,0,.9,0,381.57,0,763.13,0,1144.7-.06,2.25,0,2.79,.5,2.76,2.73-.14,9.79-.06,19.58-.06,29.37-2.22,1.54-4.73,2.64-6.73,4.51-.78,.57-1.42,1.29-2.15,1.92-1.4,1.03-2.83,2.04-4.5,2.63-5.59,1.46-10.49,.6-14.9-3.47-7.29-6.72-13.72-6.7-21.03,.15-5.19,4.86-14.27,5.52-19.59,.57-.65-.61-1.49-1.02-2.09-1.67-4.68-5.09-12.76-4.92-17.64-.85-1.08,.71-1.93,1.69-2.95,2.46-.97,.58-1.79,1.37-2.73,1.99-1.07,.58-2.21,.97-3.38,1.28-2.23,.31-4.46,.31-6.68,.02-4.04-1.09-6.89-3.95-9.89-6.58-1.12-.87-2.34-1.51-3.81-1.58-3.06-.68-6.1-.83-9.04,.52-1.12,.39-2.08,1.05-2.97,1.81-3.63,3.57-7.49,6.32-13.09,6.07-4.38-.2-7.57-2.21-10.54-4.95-2.64-2.44-5.53-4.1-9.32-4.07-3.59,.02-6.57,1.16-9.2,3.6-3.39,3.16-7.02,5.67-12.17,5.41-4.31-.22-7.68-1.88-10.58-4.81-2.88-2.91-6.25-4.54-10.45-4.18-.84,0-1.68-.04-2.49,.23-.76,.21-1.52,.41-2.24,.72-.71,.3-1.4,.64-2,1.14-.52,.45-.98,.96-1.48,1.44-3.82,3.51-7.98,6.19-13.56,5.34-.46,0-.91-.06-1.36-.15-3.68-.74-6.3-3.14-8.95-5.52-3.5-3.29-7.67-3.8-12.18-2.85-.54,.15-1.08,.31-1.6,.54-3.11,1.41-5.35,3.96-8,5.98-1.77,.94-3.5,1.96-5.59,2.03-1.44,.06-2.88,.02-4.32,.01-.79-.01-1.58-.04-2.34-.29-2.29-1.21-4.35-2.72-6.27-4.47-2.7-2.45-5.74-4.25-9.58-4.18-2.31-.17-4.43,.46-6.46,1.48-1.39,.72-2.55,1.76-3.81,2.65-.47,.39-.93,.81-1.36,1.24-.26,.27-.53,.52-.81,.76-.39,.33-.82,.61-1.27,.86-.72,.38-1.43,.79-2.18,1.13-.28,.12-.56,.22-.85,.3-4,.83-7.92,1.12-11.51-1.36-1.78-1.07-3.21-2.58-4.83-3.86-2.91-2.31-6.12-3.52-9.87-3.18-1.27,0-2.45,.37-3.6,.85-3,1.18-5.1,3.58-7.61,5.44-.73,.47-1.42,.99-2.19,1.39-1.27,.58-2.57,1.04-3.97,1.2-2.41,0-4.85,.41-7.16-.63-1.98-.92-3.69-2.21-5.32-3.67-2.66-2.38-5.51-4.51-9.34-4.58-.71,0-1.41-.03-2.12,.01-.69,.03-1.34,.22-2.01,.37-1.07,.19-2.08,.53-3.02,1.1-2.62,1.23-4.36,3.57-6.7,5.16-2.97,2.29-6.43,2.44-9.97,2.26-2.44-.12-4.41-1.44-6.48-2.5-1.62-1.3-3-2.86-4.68-4.1-2.24-1.65-4.74-2.45-7.53-2.31-.98-.02-1.94,.14-2.88,.38-.67,.14-1.34,.28-1.97,.55-3.36,1.22-5.46,4.16-8.36,6.02-1.27,.86-2.67,1.38-4.14,1.79-1.73,.32-3.48,.17-5.22,.19-.62,0-1.22-.09-1.82-.24-1.4-.4-2.71-1.01-3.91-1.84-.58-.4-1.09-.88-1.65-1.3-.92-.67-1.87-1.31-2.7-2.09-5.68-4.9-12.4-4.9-18.01,.37-4.02,3.78-8.46,5.82-14.05,5.03-1.33-.17-2.58-.57-3.73-1.25-.68-.45-1.36-.91-2.03-1.36-.45-.29-.91-.57-1.36-.86-.56-.4-1.07-.87-1.58-1.34-3.54-3.88-7.98-4.67-12.94-3.73-1.45,.3-2.68,1.01-3.83,1.91-1.18,.76-2.11,1.8-3.16,2.7-5.18,4.46-10.9,5.29-17.17,2.56-1.71-1.03-3.2-2.33-4.62-3.72-2.68-2.6-5.81-4.12-9.68-3.77-2.03-.05-3.83,.7-5.59,1.6-2.89,1.5-4.98,4.03-7.68,5.79-.51,.33-1.05,.63-1.61,.88-2.5,1.07-5.13,.52-7.71,.66-1.11,0-2.19-.13-3.18-.68-.74-.45-1.45-.94-2.17-1.42-.91-.62-1.84-1.23-2.63-2-2.06-1.97-4.01-4.12-7.18-4.29-2.12-.33-4.22-.84-6.38-.28-2.35,.47-4.3,1.62-5.93,3.34-1.03,.82-2.18,1.49-3.11,2.43-.61,.52-1.31,.91-1.97,1.37-.46,.32-.96,.59-1.48,.8-.7,.27-1.41,.5-2.15,.62-1.71,.17-3.42,.11-5.13,.08-.46-.02-.91-.1-1.35-.22-.7-.21-1.39-.45-2.07-.7-1.41-.65-2.67-1.53-3.91-2.45-2.29-2.35-4.85-4.32-8.1-5.22-.65-.22-1.31-.31-2-.31-3.6-.18-6.84,.75-9.66,2.99-.32,.21-.66,.4-.98,.61-.29,.21-.58,.44-.85,.68-.25,.25-.51,.5-.76,.75-.33,.34-.67,.68-1.02,1.01-.26,.26-.55,.48-.86,.68-.54,.31-1.12,.56-1.67,.86-.35,.2-.7,.4-1.06,.58-.66,.33-1.34,.58-2.06,.69-1.71,.18-3.41,.13-5.12,.06-.93-.07-1.8-.36-2.67-.65-.96-.36-1.87-.82-2.77-1.3-2.39-1.7-4.31-4-6.95-5.39-2.85-1.6-5.9-1.84-9.06-1.35-.25,.09-.52,.16-.78,.23-1.55,.34-2.91,1.07-4.13,2.07-.61,.48-1.29,.86-1.89,1.34-.92,.74-1.68,1.67-2.65,2.35-1.06,.67-2.09,1.4-3.27,1.89-1,.37-2.01,.69-3.07,.8-1.89,.06-3.78,.18-5.65-.11-.58-.12-1.14-.33-1.7-.54-.78-.3-1.46-.78-2.16-1.23-.45-.28-.88-.59-1.28-.94-.67-.62-1.3-1.27-2.01-1.85-1.71-1.26-3.29-2.74-5.39-3.39-2.43-.96-4.92-.98-7.45-.57-1.03,.25-2.05,.52-2.99,1.02-.22,.13-.45,.24-.68,.35-.57,.29-1.08,.68-1.6,1.04-1.72,1.03-2.86,2.74-4.56,3.8-.97,.64-1.93,1.3-3.02,1.74-2.25,.93-4.63,.74-6.98,.73-.46,.01-.92-.02-1.37-.07-.74-.09-1.42-.33-2.05-.73-.68-.45-1.39-.86-2.12-1.24-1.04-.6-1.85-1.47-2.69-2.3-.26-.25-.52-.52-.78-.76-.37-.3-.77-.53-1.18-.78-.31-.19-.6-.4-.9-.61-.63-.41-1.28-.79-1.94-1.16-1.69-.9-3.48-1.38-5.41-1.29-4.08-.24-7.27,1.63-10.19,4.16-.52,.48-1.03,.97-1.57,1.44-.93,.72-1.9,1.37-2.89,1.99-2.54,1.46-5.34,1.39-8.14,1.33-.3,.01-.6,0-.9-.02-.44-.01-.88-.06-1.31-.14-.28-.05-.55-.14-.81-.25-1.03-.64-2.08-1.27-3.15-1.84-1.04-.84-2.12-1.63-3.22-2.39-1.67-1.34-3.07-3.1-5.36-3.51-2.46-1.06-4.98-.91-7.52-.38-1.31,.32-2.6,.72-3.74,1.46-.68,.39-1.34,.79-1.9,1.34-1.08,.96-2.03,2.08-3.2,2.95-.72,.45-1.38,.97-2.12,1.4-1.53,.76-3.12,1.28-4.84,1.37-1.74-.01-3.49,.14-5.22-.16-.74-.17-1.45-.43-2.15-.72-1.35-.75-2.58-1.69-3.9-2.49-1.74-1.28-2.94-3.2-4.97-4.15-1.46-.84-3.15-.89-4.72-1.31-.68-.07-1.37-.12-2.06-.11-.41,.01-.82,0-1.23,.01-3.23,.4-5.81,2-8.04,4.25-.31,.29-.64,.55-.98,.8-1.65,1.18-3.31,2.34-5.17,3.2-1.92,.92-3.98,.64-6.01,.69-3.82,.05-6.67-1.97-9.37-4.3-1.32-1.44-2.79-2.69-4.55-3.57-1.24-.57-2.51-1.06-3.91-1.05-.56,0-1.12,0-1.68,0-1.13,.02-2.27-.09-3.37,.28-3.96,.66-5.96,4.17-9.05,6.09-1.79,1.19-3.52,2.54-5.84,2.54-1.58,.02-3.17,.05-4.75-.02-2.33-.34-4.46-1.17-6.38-2.53-1.64-1.52-3.14-3.2-5.08-4.38-1.05-.95-2.32-1.43-3.69-1.72-2.3-.41-4.58-.37-6.84,.23-2.32,.3-4.01,1.71-5.67,3.17-1.22,.7-2.18,1.72-3.21,2.65-1.64,1.1-3.34,2.05-5.29,2.51-1.75,.22-3.49,.11-5.24,.07-1.88-.24-3.61-.86-5.19-1.89-2.56-1.57-4.35-4.13-7.13-5.42-2.22-1.46-4.7-1.76-7.28-1.6-.26,.02-.53,.01-.8,.01-.64,0-1.25,.14-1.86,.32-.46,.14-.92,.29-1.36,.48-.54,.24-1.08,.47-1.6,.76-.53,.3-.97,.7-1.42,1.09-.81,.63-1.68,1.16-2.38,1.92-1.75,1.96-4,3.13-6.4,4.09-.6,.18-1.21,.25-1.83,.27-1.76-.02-3.52,.14-5.26-.18-1.19-.33-2.35-.72-3.45-1.3-1.9-1.1-3.39-2.7-5.08-4.06-2.09-1.69-4.41-3.01-7.17-3.33-4.33-.58-7.93,.94-11.14,3.69-1.27,1.08-2.47,2.26-3.9,3.14-1.31,.87-2.76,1.43-4.27,1.85-1.76,.33-3.53,.18-5.3,.2-1.12-.03-2.17-.3-3.17-.78-2.47-1.19-4.93-2.43-6.61-4.7-1.45-1.26-2.93-2.49-4.93-2.81-5.7-1.64-10.37,.18-14.43,4.14-1.57,1.54-3.38,2.76-5.48,3.53-2.17,.83-4.43,.66-6.68,.63-1.91-.04-3.55-.89-5.17-1.76-.99-.55-1.81-1.32-2.61-2.11-.47-.47-.92-.94-1.45-1.34-.87-.62-1.78-1.19-2.74-1.67-5.8-3.19-10.89-2.7-16.01,1.6-1.37,1.15-2.62,2.44-4.15,3.41-5.31,2.78-10.52,2.86-15.6-.56-.82-.67-1.56-1.44-2.46-2.01-4.32-4.26-9.29-5.8-15.15-3.47-2.25,.9-3.99,2.5-5.67,4.18-3.69,3.49-8.16,4.22-13.01,3.62-3.76-1.32-7.33-2.91-9.38-6.61Z"/>
</svg>